<mxfile host="app.diagrams.net" modified="2023-06-11T10:20:25.272Z" agent="Mozilla/5.0 (Windows NT 10.0; Win64; x64) AppleWebKit/537.36 (KHTML, like Gecko) Chrome/114.0.0.0 Safari/537.36" etag="WAhMXss0r4ydtaaCmfvZ" version="21.3.7" type="device" pages="6">
  <diagram id="KpXHTfyiT4LsTm3sVcps" name="class">
    <mxGraphModel dx="2231" dy="707" grid="1" gridSize="10" guides="1" tooltips="1" connect="1" arrows="1" fold="1" page="1" pageScale="1" pageWidth="850" pageHeight="1100" math="0" shadow="0">
      <root>
        <mxCell id="0" />
        <mxCell id="1" parent="0" />
        <mxCell id="VJ-zcvntP25eQYUmrIv2-1" value="Pengguna" style="swimlane;fontStyle=0;childLayout=stackLayout;horizontal=1;startSize=30;horizontalStack=0;resizeParent=1;resizeParentMax=0;resizeLast=0;collapsible=1;marginBottom=0;whiteSpace=wrap;html=1;" parent="1" vertex="1">
          <mxGeometry x="-215" y="40" width="140" height="390" as="geometry" />
        </mxCell>
        <mxCell id="VJ-zcvntP25eQYUmrIv2-2" value="# username_pengguna" style="text;strokeColor=none;fillColor=none;align=left;verticalAlign=middle;spacingLeft=4;spacingRight=4;overflow=hidden;points=[[0,0.5],[1,0.5]];portConstraint=eastwest;rotatable=0;whiteSpace=wrap;html=1;" parent="VJ-zcvntP25eQYUmrIv2-1" vertex="1">
          <mxGeometry y="30" width="140" height="30" as="geometry" />
        </mxCell>
        <mxCell id="VJ-zcvntP25eQYUmrIv2-3" value="- password" style="text;strokeColor=none;fillColor=none;align=left;verticalAlign=middle;spacingLeft=4;spacingRight=4;overflow=hidden;points=[[0,0.5],[1,0.5]];portConstraint=eastwest;rotatable=0;whiteSpace=wrap;html=1;" parent="VJ-zcvntP25eQYUmrIv2-1" vertex="1">
          <mxGeometry y="60" width="140" height="30" as="geometry" />
        </mxCell>
        <mxCell id="VJ-zcvntP25eQYUmrIv2-4" value="- nama_pengguna" style="text;strokeColor=none;fillColor=none;align=left;verticalAlign=middle;spacingLeft=4;spacingRight=4;overflow=hidden;points=[[0,0.5],[1,0.5]];portConstraint=eastwest;rotatable=0;whiteSpace=wrap;html=1;" parent="VJ-zcvntP25eQYUmrIv2-1" vertex="1">
          <mxGeometry y="90" width="140" height="30" as="geometry" />
        </mxCell>
        <mxCell id="VJ-zcvntP25eQYUmrIv2-5" value="- email" style="text;strokeColor=none;fillColor=none;align=left;verticalAlign=middle;spacingLeft=4;spacingRight=4;overflow=hidden;points=[[0,0.5],[1,0.5]];portConstraint=eastwest;rotatable=0;whiteSpace=wrap;html=1;" parent="VJ-zcvntP25eQYUmrIv2-1" vertex="1">
          <mxGeometry y="120" width="140" height="30" as="geometry" />
        </mxCell>
        <mxCell id="VJ-zcvntP25eQYUmrIv2-6" value="+ registrasi()" style="text;strokeColor=none;fillColor=none;align=left;verticalAlign=middle;spacingLeft=4;spacingRight=4;overflow=hidden;points=[[0,0.5],[1,0.5]];portConstraint=eastwest;rotatable=0;whiteSpace=wrap;html=1;" parent="VJ-zcvntP25eQYUmrIv2-1" vertex="1">
          <mxGeometry y="150" width="140" height="30" as="geometry" />
        </mxCell>
        <mxCell id="VJ-zcvntP25eQYUmrIv2-7" value="" style="endArrow=none;html=1;rounded=0;exitX=-0.001;exitY=-0.027;exitDx=0;exitDy=0;exitPerimeter=0;entryX=0.987;entryY=1.005;entryDx=0;entryDy=0;entryPerimeter=0;" parent="VJ-zcvntP25eQYUmrIv2-1" source="VJ-zcvntP25eQYUmrIv2-6" target="VJ-zcvntP25eQYUmrIv2-5" edge="1">
          <mxGeometry width="50" height="50" relative="1" as="geometry">
            <mxPoint x="40" y="170" as="sourcePoint" />
            <mxPoint x="90" y="120" as="targetPoint" />
          </mxGeometry>
        </mxCell>
        <mxCell id="VJ-zcvntP25eQYUmrIv2-8" value="+ login()" style="text;strokeColor=none;fillColor=none;align=left;verticalAlign=middle;spacingLeft=4;spacingRight=4;overflow=hidden;points=[[0,0.5],[1,0.5]];portConstraint=eastwest;rotatable=0;whiteSpace=wrap;html=1;" parent="VJ-zcvntP25eQYUmrIv2-1" vertex="1">
          <mxGeometry y="180" width="140" height="30" as="geometry" />
        </mxCell>
        <mxCell id="VJ-zcvntP25eQYUmrIv2-9" value="+ inputAkunGame()" style="text;strokeColor=none;fillColor=none;align=left;verticalAlign=middle;spacingLeft=4;spacingRight=4;overflow=hidden;points=[[0,0.5],[1,0.5]];portConstraint=eastwest;rotatable=0;whiteSpace=wrap;html=1;" parent="VJ-zcvntP25eQYUmrIv2-1" vertex="1">
          <mxGeometry y="210" width="140" height="30" as="geometry" />
        </mxCell>
        <mxCell id="VJ-zcvntP25eQYUmrIv2-10" value="+ lihatAkunGame()" style="text;strokeColor=none;fillColor=none;align=left;verticalAlign=middle;spacingLeft=4;spacingRight=4;overflow=hidden;points=[[0,0.5],[1,0.5]];portConstraint=eastwest;rotatable=0;whiteSpace=wrap;html=1;" parent="VJ-zcvntP25eQYUmrIv2-1" vertex="1">
          <mxGeometry y="240" width="140" height="30" as="geometry" />
        </mxCell>
        <mxCell id="VJ-zcvntP25eQYUmrIv2-11" value="+ searchAkunGame()" style="text;strokeColor=none;fillColor=none;align=left;verticalAlign=middle;spacingLeft=4;spacingRight=4;overflow=hidden;points=[[0,0.5],[1,0.5]];portConstraint=eastwest;rotatable=0;whiteSpace=wrap;html=1;" parent="VJ-zcvntP25eQYUmrIv2-1" vertex="1">
          <mxGeometry y="270" width="140" height="30" as="geometry" />
        </mxCell>
        <mxCell id="VJ-zcvntP25eQYUmrIv2-12" value="+ lihatNamaGame()" style="text;strokeColor=none;fillColor=none;align=left;verticalAlign=middle;spacingLeft=4;spacingRight=4;overflow=hidden;points=[[0,0.5],[1,0.5]];portConstraint=eastwest;rotatable=0;whiteSpace=wrap;html=1;" parent="VJ-zcvntP25eQYUmrIv2-1" vertex="1">
          <mxGeometry y="300" width="140" height="30" as="geometry" />
        </mxCell>
        <mxCell id="VJ-zcvntP25eQYUmrIv2-13" value="+ beliAkunGame()" style="text;strokeColor=none;fillColor=none;align=left;verticalAlign=middle;spacingLeft=4;spacingRight=4;overflow=hidden;points=[[0,0.5],[1,0.5]];portConstraint=eastwest;rotatable=0;whiteSpace=wrap;html=1;" parent="VJ-zcvntP25eQYUmrIv2-1" vertex="1">
          <mxGeometry y="330" width="140" height="30" as="geometry" />
        </mxCell>
        <mxCell id="VJ-zcvntP25eQYUmrIv2-14" value="+ logout()" style="text;strokeColor=none;fillColor=none;align=left;verticalAlign=middle;spacingLeft=4;spacingRight=4;overflow=hidden;points=[[0,0.5],[1,0.5]];portConstraint=eastwest;rotatable=0;whiteSpace=wrap;html=1;" parent="VJ-zcvntP25eQYUmrIv2-1" vertex="1">
          <mxGeometry y="360" width="140" height="30" as="geometry" />
        </mxCell>
        <mxCell id="VJ-zcvntP25eQYUmrIv2-15" value="Admin" style="swimlane;fontStyle=0;childLayout=stackLayout;horizontal=1;startSize=30;horizontalStack=0;resizeParent=1;resizeParentMax=0;resizeLast=0;collapsible=1;marginBottom=0;whiteSpace=wrap;html=1;" parent="1" vertex="1">
          <mxGeometry x="150" y="40" width="160" height="510" as="geometry" />
        </mxCell>
        <mxCell id="VJ-zcvntP25eQYUmrIv2-16" value="# username_admin" style="text;strokeColor=none;fillColor=none;align=left;verticalAlign=middle;spacingLeft=4;spacingRight=4;overflow=hidden;points=[[0,0.5],[1,0.5]];portConstraint=eastwest;rotatable=0;whiteSpace=wrap;html=1;" parent="VJ-zcvntP25eQYUmrIv2-15" vertex="1">
          <mxGeometry y="30" width="160" height="30" as="geometry" />
        </mxCell>
        <mxCell id="VJ-zcvntP25eQYUmrIv2-17" value="- password" style="text;strokeColor=none;fillColor=none;align=left;verticalAlign=middle;spacingLeft=4;spacingRight=4;overflow=hidden;points=[[0,0.5],[1,0.5]];portConstraint=eastwest;rotatable=0;whiteSpace=wrap;html=1;" parent="VJ-zcvntP25eQYUmrIv2-15" vertex="1">
          <mxGeometry y="60" width="160" height="30" as="geometry" />
        </mxCell>
        <mxCell id="VJ-zcvntP25eQYUmrIv2-18" value="- nama_admin" style="text;strokeColor=none;fillColor=none;align=left;verticalAlign=middle;spacingLeft=4;spacingRight=4;overflow=hidden;points=[[0,0.5],[1,0.5]];portConstraint=eastwest;rotatable=0;whiteSpace=wrap;html=1;" parent="VJ-zcvntP25eQYUmrIv2-15" vertex="1">
          <mxGeometry y="90" width="160" height="30" as="geometry" />
        </mxCell>
        <mxCell id="VJ-zcvntP25eQYUmrIv2-19" value="- email" style="text;strokeColor=none;fillColor=none;align=left;verticalAlign=middle;spacingLeft=4;spacingRight=4;overflow=hidden;points=[[0,0.5],[1,0.5]];portConstraint=eastwest;rotatable=0;whiteSpace=wrap;html=1;" parent="VJ-zcvntP25eQYUmrIv2-15" vertex="1">
          <mxGeometry y="120" width="160" height="30" as="geometry" />
        </mxCell>
        <mxCell id="VJ-zcvntP25eQYUmrIv2-20" value="" style="endArrow=none;html=1;rounded=0;exitX=-0.001;exitY=-0.027;exitDx=0;exitDy=0;exitPerimeter=0;entryX=1.003;entryY=1.001;entryDx=0;entryDy=0;entryPerimeter=0;" parent="VJ-zcvntP25eQYUmrIv2-15" source="VJ-zcvntP25eQYUmrIv2-21" target="VJ-zcvntP25eQYUmrIv2-19" edge="1">
          <mxGeometry width="50" height="50" relative="1" as="geometry">
            <mxPoint x="30.139999999999986" y="150.80999999999995" as="sourcePoint" />
            <mxPoint x="128.14" y="130.80999999999995" as="targetPoint" />
          </mxGeometry>
        </mxCell>
        <mxCell id="VJ-zcvntP25eQYUmrIv2-21" value="+ login()" style="text;strokeColor=none;fillColor=none;align=left;verticalAlign=middle;spacingLeft=4;spacingRight=4;overflow=hidden;points=[[0,0.5],[1,0.5]];portConstraint=eastwest;rotatable=0;whiteSpace=wrap;html=1;" parent="VJ-zcvntP25eQYUmrIv2-15" vertex="1">
          <mxGeometry y="150" width="160" height="30" as="geometry" />
        </mxCell>
        <mxCell id="VJ-zcvntP25eQYUmrIv2-22" value="+ tambahNamaGame()" style="text;strokeColor=none;fillColor=none;align=left;verticalAlign=middle;spacingLeft=4;spacingRight=4;overflow=hidden;points=[[0,0.5],[1,0.5]];portConstraint=eastwest;rotatable=0;whiteSpace=wrap;html=1;" parent="VJ-zcvntP25eQYUmrIv2-15" vertex="1">
          <mxGeometry y="180" width="160" height="30" as="geometry" />
        </mxCell>
        <mxCell id="VJ-zcvntP25eQYUmrIv2-23" value="+ lihatNamaGame()" style="text;strokeColor=none;fillColor=none;align=left;verticalAlign=middle;spacingLeft=4;spacingRight=4;overflow=hidden;points=[[0,0.5],[1,0.5]];portConstraint=eastwest;rotatable=0;whiteSpace=wrap;html=1;" parent="VJ-zcvntP25eQYUmrIv2-15" vertex="1">
          <mxGeometry y="210" width="160" height="30" as="geometry" />
        </mxCell>
        <mxCell id="VJ-zcvntP25eQYUmrIv2-24" value="+ editNamaGame()" style="text;strokeColor=none;fillColor=none;align=left;verticalAlign=middle;spacingLeft=4;spacingRight=4;overflow=hidden;points=[[0,0.5],[1,0.5]];portConstraint=eastwest;rotatable=0;whiteSpace=wrap;html=1;" parent="VJ-zcvntP25eQYUmrIv2-15" vertex="1">
          <mxGeometry y="240" width="160" height="30" as="geometry" />
        </mxCell>
        <mxCell id="VJ-zcvntP25eQYUmrIv2-25" value="+ hapusNamaGame()" style="text;strokeColor=none;fillColor=none;align=left;verticalAlign=middle;spacingLeft=4;spacingRight=4;overflow=hidden;points=[[0,0.5],[1,0.5]];portConstraint=eastwest;rotatable=0;whiteSpace=wrap;html=1;" parent="VJ-zcvntP25eQYUmrIv2-15" vertex="1">
          <mxGeometry y="270" width="160" height="30" as="geometry" />
        </mxCell>
        <mxCell id="VJ-zcvntP25eQYUmrIv2-26" value="+ lihatAkunGame()" style="text;strokeColor=none;fillColor=none;align=left;verticalAlign=middle;spacingLeft=4;spacingRight=4;overflow=hidden;points=[[0,0.5],[1,0.5]];portConstraint=eastwest;rotatable=0;whiteSpace=wrap;html=1;" parent="VJ-zcvntP25eQYUmrIv2-15" vertex="1">
          <mxGeometry y="300" width="160" height="30" as="geometry" />
        </mxCell>
        <mxCell id="VJ-zcvntP25eQYUmrIv2-27" value="+ editAkunGame()" style="text;strokeColor=none;fillColor=none;align=left;verticalAlign=middle;spacingLeft=4;spacingRight=4;overflow=hidden;points=[[0,0.5],[1,0.5]];portConstraint=eastwest;rotatable=0;whiteSpace=wrap;html=1;" parent="VJ-zcvntP25eQYUmrIv2-15" vertex="1">
          <mxGeometry y="330" width="160" height="30" as="geometry" />
        </mxCell>
        <mxCell id="VJ-zcvntP25eQYUmrIv2-28" value="+ hapusAkunGame()" style="text;strokeColor=none;fillColor=none;align=left;verticalAlign=middle;spacingLeft=4;spacingRight=4;overflow=hidden;points=[[0,0.5],[1,0.5]];portConstraint=eastwest;rotatable=0;whiteSpace=wrap;html=1;" parent="VJ-zcvntP25eQYUmrIv2-15" vertex="1">
          <mxGeometry y="360" width="160" height="30" as="geometry" />
        </mxCell>
        <mxCell id="VJ-zcvntP25eQYUmrIv2-29" value="+ searchAkunGame()" style="text;strokeColor=none;fillColor=none;align=left;verticalAlign=middle;spacingLeft=4;spacingRight=4;overflow=hidden;points=[[0,0.5],[1,0.5]];portConstraint=eastwest;rotatable=0;whiteSpace=wrap;html=1;" parent="VJ-zcvntP25eQYUmrIv2-15" vertex="1">
          <mxGeometry y="390" width="160" height="30" as="geometry" />
        </mxCell>
        <mxCell id="VJ-zcvntP25eQYUmrIv2-30" value="+ lihatLaporanPembelian()" style="text;strokeColor=none;fillColor=none;align=left;verticalAlign=middle;spacingLeft=4;spacingRight=4;overflow=hidden;points=[[0,0.5],[1,0.5]];portConstraint=eastwest;rotatable=0;whiteSpace=wrap;html=1;" parent="VJ-zcvntP25eQYUmrIv2-15" vertex="1">
          <mxGeometry y="420" width="160" height="30" as="geometry" />
        </mxCell>
        <mxCell id="VJ-zcvntP25eQYUmrIv2-31" value="+ validasiAkunGame()" style="text;strokeColor=none;fillColor=none;align=left;verticalAlign=middle;spacingLeft=4;spacingRight=4;overflow=hidden;points=[[0,0.5],[1,0.5]];portConstraint=eastwest;rotatable=0;whiteSpace=wrap;html=1;" parent="VJ-zcvntP25eQYUmrIv2-15" vertex="1">
          <mxGeometry y="450" width="160" height="30" as="geometry" />
        </mxCell>
        <mxCell id="VJ-zcvntP25eQYUmrIv2-32" value="+ logout()" style="text;strokeColor=none;fillColor=none;align=left;verticalAlign=middle;spacingLeft=4;spacingRight=4;overflow=hidden;points=[[0,0.5],[1,0.5]];portConstraint=eastwest;rotatable=0;whiteSpace=wrap;html=1;" parent="VJ-zcvntP25eQYUmrIv2-15" vertex="1">
          <mxGeometry y="480" width="160" height="30" as="geometry" />
        </mxCell>
        <mxCell id="VJ-zcvntP25eQYUmrIv2-33" value="Pemilik" style="swimlane;fontStyle=0;childLayout=stackLayout;horizontal=1;startSize=30;horizontalStack=0;resizeParent=1;resizeParentMax=0;resizeLast=0;collapsible=1;marginBottom=0;whiteSpace=wrap;html=1;" parent="1" vertex="1">
          <mxGeometry x="519.8199999999999" y="40" width="159.86" height="360" as="geometry" />
        </mxCell>
        <mxCell id="VJ-zcvntP25eQYUmrIv2-34" value="# username_pemilik" style="text;strokeColor=none;fillColor=none;align=left;verticalAlign=middle;spacingLeft=4;spacingRight=4;overflow=hidden;points=[[0,0.5],[1,0.5]];portConstraint=eastwest;rotatable=0;whiteSpace=wrap;html=1;" parent="VJ-zcvntP25eQYUmrIv2-33" vertex="1">
          <mxGeometry y="30" width="159.86" height="30" as="geometry" />
        </mxCell>
        <mxCell id="VJ-zcvntP25eQYUmrIv2-35" value="- password" style="text;strokeColor=none;fillColor=none;align=left;verticalAlign=middle;spacingLeft=4;spacingRight=4;overflow=hidden;points=[[0,0.5],[1,0.5]];portConstraint=eastwest;rotatable=0;whiteSpace=wrap;html=1;" parent="VJ-zcvntP25eQYUmrIv2-33" vertex="1">
          <mxGeometry y="60" width="159.86" height="30" as="geometry" />
        </mxCell>
        <mxCell id="VJ-zcvntP25eQYUmrIv2-36" value="- nama_pemilik" style="text;strokeColor=none;fillColor=none;align=left;verticalAlign=middle;spacingLeft=4;spacingRight=4;overflow=hidden;points=[[0,0.5],[1,0.5]];portConstraint=eastwest;rotatable=0;whiteSpace=wrap;html=1;" parent="VJ-zcvntP25eQYUmrIv2-33" vertex="1">
          <mxGeometry y="90" width="159.86" height="30" as="geometry" />
        </mxCell>
        <mxCell id="VJ-zcvntP25eQYUmrIv2-37" value="- email" style="text;strokeColor=none;fillColor=none;align=left;verticalAlign=middle;spacingLeft=4;spacingRight=4;overflow=hidden;points=[[0,0.5],[1,0.5]];portConstraint=eastwest;rotatable=0;whiteSpace=wrap;html=1;" parent="VJ-zcvntP25eQYUmrIv2-33" vertex="1">
          <mxGeometry y="120" width="159.86" height="30" as="geometry" />
        </mxCell>
        <mxCell id="VJ-zcvntP25eQYUmrIv2-38" value="+ login()" style="text;strokeColor=none;fillColor=none;align=left;verticalAlign=middle;spacingLeft=4;spacingRight=4;overflow=hidden;points=[[0,0.5],[1,0.5]];portConstraint=eastwest;rotatable=0;whiteSpace=wrap;html=1;" parent="VJ-zcvntP25eQYUmrIv2-33" vertex="1">
          <mxGeometry y="150" width="159.86" height="30" as="geometry" />
        </mxCell>
        <mxCell id="VJ-zcvntP25eQYUmrIv2-39" value="" style="endArrow=none;html=1;rounded=0;exitX=-0.001;exitY=-0.027;exitDx=0;exitDy=0;exitPerimeter=0;entryX=0.994;entryY=0;entryDx=0;entryDy=0;entryPerimeter=0;" parent="VJ-zcvntP25eQYUmrIv2-33" source="VJ-zcvntP25eQYUmrIv2-38" target="VJ-zcvntP25eQYUmrIv2-38" edge="1">
          <mxGeometry width="50" height="50" relative="1" as="geometry">
            <mxPoint x="40.139999999999986" y="150.80999999999995" as="sourcePoint" />
            <mxPoint x="138.14" y="130.80999999999995" as="targetPoint" />
          </mxGeometry>
        </mxCell>
        <mxCell id="VJ-zcvntP25eQYUmrIv2-40" value="+ registrasiAkunAdmin()" style="text;strokeColor=none;fillColor=none;align=left;verticalAlign=middle;spacingLeft=4;spacingRight=4;overflow=hidden;points=[[0,0.5],[1,0.5]];portConstraint=eastwest;rotatable=0;whiteSpace=wrap;html=1;" parent="VJ-zcvntP25eQYUmrIv2-33" vertex="1">
          <mxGeometry y="180" width="159.86" height="30" as="geometry" />
        </mxCell>
        <mxCell id="VJ-zcvntP25eQYUmrIv2-41" value="+ lihatAkunAdmin()" style="text;strokeColor=none;fillColor=none;align=left;verticalAlign=middle;spacingLeft=4;spacingRight=4;overflow=hidden;points=[[0,0.5],[1,0.5]];portConstraint=eastwest;rotatable=0;whiteSpace=wrap;html=1;" parent="VJ-zcvntP25eQYUmrIv2-33" vertex="1">
          <mxGeometry y="210" width="159.86" height="30" as="geometry" />
        </mxCell>
        <mxCell id="VJ-zcvntP25eQYUmrIv2-42" value="+ editAkunAdmin()" style="text;strokeColor=none;fillColor=none;align=left;verticalAlign=middle;spacingLeft=4;spacingRight=4;overflow=hidden;points=[[0,0.5],[1,0.5]];portConstraint=eastwest;rotatable=0;whiteSpace=wrap;html=1;" parent="VJ-zcvntP25eQYUmrIv2-33" vertex="1">
          <mxGeometry y="240" width="159.86" height="30" as="geometry" />
        </mxCell>
        <mxCell id="VJ-zcvntP25eQYUmrIv2-43" value="+ hapusAkunAdmin()" style="text;strokeColor=none;fillColor=none;align=left;verticalAlign=middle;spacingLeft=4;spacingRight=4;overflow=hidden;points=[[0,0.5],[1,0.5]];portConstraint=eastwest;rotatable=0;whiteSpace=wrap;html=1;" parent="VJ-zcvntP25eQYUmrIv2-33" vertex="1">
          <mxGeometry y="270" width="159.86" height="30" as="geometry" />
        </mxCell>
        <mxCell id="VJ-zcvntP25eQYUmrIv2-44" value="+ lihatLaporanPembelian()" style="text;strokeColor=none;fillColor=none;align=left;verticalAlign=middle;spacingLeft=4;spacingRight=4;overflow=hidden;points=[[0,0.5],[1,0.5]];portConstraint=eastwest;rotatable=0;whiteSpace=wrap;html=1;" parent="VJ-zcvntP25eQYUmrIv2-33" vertex="1">
          <mxGeometry y="300" width="159.86" height="30" as="geometry" />
        </mxCell>
        <mxCell id="VJ-zcvntP25eQYUmrIv2-45" value="+ logout()" style="text;strokeColor=none;fillColor=none;align=left;verticalAlign=middle;spacingLeft=4;spacingRight=4;overflow=hidden;points=[[0,0.5],[1,0.5]];portConstraint=eastwest;rotatable=0;whiteSpace=wrap;html=1;" parent="VJ-zcvntP25eQYUmrIv2-33" vertex="1">
          <mxGeometry y="330" width="159.86" height="30" as="geometry" />
        </mxCell>
        <mxCell id="VJ-zcvntP25eQYUmrIv2-46" value="Akun_Game" style="swimlane;fontStyle=0;childLayout=stackLayout;horizontal=1;startSize=30;horizontalStack=0;resizeParent=1;resizeParentMax=0;resizeLast=0;collapsible=1;marginBottom=0;whiteSpace=wrap;html=1;" parent="1" vertex="1">
          <mxGeometry x="529.75" y="630" width="140" height="266" as="geometry" />
        </mxCell>
        <mxCell id="VJ-zcvntP25eQYUmrIv2-47" value="# id_akungame" style="text;strokeColor=none;fillColor=none;align=left;verticalAlign=middle;spacingLeft=4;spacingRight=4;overflow=hidden;points=[[0,0.5],[1,0.5]];portConstraint=eastwest;rotatable=0;whiteSpace=wrap;html=1;" parent="VJ-zcvntP25eQYUmrIv2-46" vertex="1">
          <mxGeometry y="30" width="140" height="30" as="geometry" />
        </mxCell>
        <mxCell id="VJ-zcvntP25eQYUmrIv2-48" value="# username_pengguna" style="text;strokeColor=none;fillColor=none;align=left;verticalAlign=middle;spacingLeft=4;spacingRight=4;overflow=hidden;points=[[0,0.5],[1,0.5]];portConstraint=eastwest;rotatable=0;whiteSpace=wrap;html=1;" parent="VJ-zcvntP25eQYUmrIv2-46" vertex="1">
          <mxGeometry y="60" width="140" height="30" as="geometry" />
        </mxCell>
        <mxCell id="VJ-zcvntP25eQYUmrIv2-49" value="# id_game" style="text;strokeColor=none;fillColor=none;align=left;verticalAlign=middle;spacingLeft=4;spacingRight=4;overflow=hidden;points=[[0,0.5],[1,0.5]];portConstraint=eastwest;rotatable=0;whiteSpace=wrap;html=1;" parent="VJ-zcvntP25eQYUmrIv2-46" vertex="1">
          <mxGeometry y="90" width="140" height="30" as="geometry" />
        </mxCell>
        <mxCell id="VJ-zcvntP25eQYUmrIv2-50" value="+ harga" style="text;strokeColor=none;fillColor=none;align=left;verticalAlign=middle;spacingLeft=4;spacingRight=4;overflow=hidden;points=[[0,0.5],[1,0.5]];portConstraint=eastwest;rotatable=0;whiteSpace=wrap;html=1;" parent="VJ-zcvntP25eQYUmrIv2-46" vertex="1">
          <mxGeometry y="120" width="140" height="30" as="geometry" />
        </mxCell>
        <mxCell id="VJ-zcvntP25eQYUmrIv2-51" value="# data_akun" style="text;strokeColor=none;fillColor=none;align=left;verticalAlign=middle;spacingLeft=4;spacingRight=4;overflow=hidden;points=[[0,0.5],[1,0.5]];portConstraint=eastwest;rotatable=0;whiteSpace=wrap;html=1;" parent="VJ-zcvntP25eQYUmrIv2-46" vertex="1">
          <mxGeometry y="150" width="140" height="30" as="geometry" />
        </mxCell>
        <mxCell id="VJ-zcvntP25eQYUmrIv2-52" value="# status_akun" style="text;strokeColor=none;fillColor=none;align=left;verticalAlign=top;spacingLeft=4;spacingRight=4;overflow=hidden;rotatable=0;points=[[0,0.5],[1,0.5]];portConstraint=eastwest;whiteSpace=wrap;html=1;" parent="VJ-zcvntP25eQYUmrIv2-46" vertex="1">
          <mxGeometry y="180" width="140" height="26" as="geometry" />
        </mxCell>
        <mxCell id="VJ-zcvntP25eQYUmrIv2-53" value="+ deskripsi_akun" style="text;strokeColor=none;fillColor=none;align=left;verticalAlign=middle;spacingLeft=4;spacingRight=4;overflow=hidden;points=[[0,0.5],[1,0.5]];portConstraint=eastwest;rotatable=0;whiteSpace=wrap;html=1;" parent="VJ-zcvntP25eQYUmrIv2-46" vertex="1">
          <mxGeometry y="206" width="140" height="30" as="geometry" />
        </mxCell>
        <mxCell id="VJ-zcvntP25eQYUmrIv2-54" value="+ listAkunGame()" style="text;strokeColor=none;fillColor=none;align=left;verticalAlign=middle;spacingLeft=4;spacingRight=4;overflow=hidden;points=[[0,0.5],[1,0.5]];portConstraint=eastwest;rotatable=0;whiteSpace=wrap;html=1;" parent="VJ-zcvntP25eQYUmrIv2-46" vertex="1">
          <mxGeometry y="236" width="140" height="30" as="geometry" />
        </mxCell>
        <mxCell id="VJ-zcvntP25eQYUmrIv2-55" value="" style="endArrow=none;html=1;rounded=0;exitX=0.002;exitY=-0.001;exitDx=0;exitDy=0;exitPerimeter=0;entryX=0.999;entryY=0.005;entryDx=0;entryDy=0;entryPerimeter=0;" parent="VJ-zcvntP25eQYUmrIv2-46" source="VJ-zcvntP25eQYUmrIv2-54" target="VJ-zcvntP25eQYUmrIv2-54" edge="1">
          <mxGeometry width="50" height="50" relative="1" as="geometry">
            <mxPoint x="40" y="170" as="sourcePoint" />
            <mxPoint x="90" y="120" as="targetPoint" />
          </mxGeometry>
        </mxCell>
        <mxCell id="VJ-zcvntP25eQYUmrIv2-56" value="Nama_Game" style="swimlane;fontStyle=0;childLayout=stackLayout;horizontal=1;startSize=30;horizontalStack=0;resizeParent=1;resizeParentMax=0;resizeLast=0;collapsible=1;marginBottom=0;whiteSpace=wrap;html=1;" parent="1" vertex="1">
          <mxGeometry x="160" y="600" width="140" height="150" as="geometry" />
        </mxCell>
        <mxCell id="VJ-zcvntP25eQYUmrIv2-57" value="# id_game" style="text;strokeColor=none;fillColor=none;align=left;verticalAlign=middle;spacingLeft=4;spacingRight=4;overflow=hidden;points=[[0,0.5],[1,0.5]];portConstraint=eastwest;rotatable=0;whiteSpace=wrap;html=1;" parent="VJ-zcvntP25eQYUmrIv2-56" vertex="1">
          <mxGeometry y="30" width="140" height="30" as="geometry" />
        </mxCell>
        <mxCell id="VJ-zcvntP25eQYUmrIv2-58" value="# nama_game" style="text;strokeColor=none;fillColor=none;align=left;verticalAlign=middle;spacingLeft=4;spacingRight=4;overflow=hidden;points=[[0,0.5],[1,0.5]];portConstraint=eastwest;rotatable=0;whiteSpace=wrap;html=1;" parent="VJ-zcvntP25eQYUmrIv2-56" vertex="1">
          <mxGeometry y="60" width="140" height="30" as="geometry" />
        </mxCell>
        <mxCell id="VJ-zcvntP25eQYUmrIv2-59" value="+ genre" style="text;strokeColor=none;fillColor=none;align=left;verticalAlign=middle;spacingLeft=4;spacingRight=4;overflow=hidden;points=[[0,0.5],[1,0.5]];portConstraint=eastwest;rotatable=0;whiteSpace=wrap;html=1;" parent="VJ-zcvntP25eQYUmrIv2-56" vertex="1">
          <mxGeometry y="90" width="140" height="30" as="geometry" />
        </mxCell>
        <mxCell id="VJ-zcvntP25eQYUmrIv2-60" value="+ listNamaGame()" style="text;strokeColor=none;fillColor=none;align=left;verticalAlign=middle;spacingLeft=4;spacingRight=4;overflow=hidden;points=[[0,0.5],[1,0.5]];portConstraint=eastwest;rotatable=0;whiteSpace=wrap;html=1;" parent="VJ-zcvntP25eQYUmrIv2-56" vertex="1">
          <mxGeometry y="120" width="140" height="30" as="geometry" />
        </mxCell>
        <mxCell id="VJ-zcvntP25eQYUmrIv2-61" value="" style="endArrow=none;html=1;rounded=0;exitX=0.007;exitY=0.021;exitDx=0;exitDy=0;exitPerimeter=0;entryX=1;entryY=0.03;entryDx=0;entryDy=0;entryPerimeter=0;" parent="VJ-zcvntP25eQYUmrIv2-56" source="VJ-zcvntP25eQYUmrIv2-60" target="VJ-zcvntP25eQYUmrIv2-60" edge="1">
          <mxGeometry width="50" height="50" relative="1" as="geometry">
            <mxPoint x="40" y="170" as="sourcePoint" />
            <mxPoint x="90" y="120" as="targetPoint" />
          </mxGeometry>
        </mxCell>
        <mxCell id="VJ-zcvntP25eQYUmrIv2-62" value="Pembelian" style="swimlane;fontStyle=0;childLayout=stackLayout;horizontal=1;startSize=30;horizontalStack=0;resizeParent=1;resizeParentMax=0;resizeLast=0;collapsible=1;marginBottom=0;whiteSpace=wrap;html=1;" parent="1" vertex="1">
          <mxGeometry x="840" y="390" width="180.07" height="240" as="geometry" />
        </mxCell>
        <mxCell id="VJ-zcvntP25eQYUmrIv2-63" value="# id_pembelian" style="text;strokeColor=none;fillColor=none;align=left;verticalAlign=middle;spacingLeft=4;spacingRight=4;overflow=hidden;points=[[0,0.5],[1,0.5]];portConstraint=eastwest;rotatable=0;whiteSpace=wrap;html=1;" parent="VJ-zcvntP25eQYUmrIv2-62" vertex="1">
          <mxGeometry y="30" width="180.07" height="30" as="geometry" />
        </mxCell>
        <mxCell id="VJ-zcvntP25eQYUmrIv2-64" value="# id_akungame" style="text;strokeColor=none;fillColor=none;align=left;verticalAlign=middle;spacingLeft=4;spacingRight=4;overflow=hidden;points=[[0,0.5],[1,0.5]];portConstraint=eastwest;rotatable=0;whiteSpace=wrap;html=1;" parent="VJ-zcvntP25eQYUmrIv2-62" vertex="1">
          <mxGeometry y="60" width="180.07" height="30" as="geometry" />
        </mxCell>
        <mxCell id="VJ-zcvntP25eQYUmrIv2-65" value="# username_pengguna" style="text;strokeColor=none;fillColor=none;align=left;verticalAlign=middle;spacingLeft=4;spacingRight=4;overflow=hidden;points=[[0,0.5],[1,0.5]];portConstraint=eastwest;rotatable=0;whiteSpace=wrap;html=1;" parent="VJ-zcvntP25eQYUmrIv2-62" vertex="1">
          <mxGeometry y="90" width="180.07" height="30" as="geometry" />
        </mxCell>
        <mxCell id="VJ-zcvntP25eQYUmrIv2-66" value="+ status_pembelian" style="text;strokeColor=none;fillColor=none;align=left;verticalAlign=middle;spacingLeft=4;spacingRight=4;overflow=hidden;points=[[0,0.5],[1,0.5]];portConstraint=eastwest;rotatable=0;whiteSpace=wrap;html=1;" parent="VJ-zcvntP25eQYUmrIv2-62" vertex="1">
          <mxGeometry y="120" width="180.07" height="30" as="geometry" />
        </mxCell>
        <mxCell id="VJ-zcvntP25eQYUmrIv2-67" value="+ waktu_pembelian" style="text;strokeColor=none;fillColor=none;align=left;verticalAlign=middle;spacingLeft=4;spacingRight=4;overflow=hidden;points=[[0,0.5],[1,0.5]];portConstraint=eastwest;rotatable=0;whiteSpace=wrap;html=1;" parent="VJ-zcvntP25eQYUmrIv2-62" vertex="1">
          <mxGeometry y="150" width="180.07" height="30" as="geometry" />
        </mxCell>
        <mxCell id="VJ-zcvntP25eQYUmrIv2-68" value="+ tambahPembelian()" style="text;strokeColor=none;fillColor=none;align=left;verticalAlign=middle;spacingLeft=4;spacingRight=4;overflow=hidden;points=[[0,0.5],[1,0.5]];portConstraint=eastwest;rotatable=0;whiteSpace=wrap;html=1;" parent="VJ-zcvntP25eQYUmrIv2-62" vertex="1">
          <mxGeometry y="180" width="180.07" height="30" as="geometry" />
        </mxCell>
        <mxCell id="VJ-zcvntP25eQYUmrIv2-69" value="" style="endArrow=none;html=1;rounded=0;exitX=0.001;exitY=0.018;exitDx=0;exitDy=0;exitPerimeter=0;entryX=0.998;entryY=0.06;entryDx=0;entryDy=0;entryPerimeter=0;" parent="VJ-zcvntP25eQYUmrIv2-62" source="VJ-zcvntP25eQYUmrIv2-68" target="VJ-zcvntP25eQYUmrIv2-68" edge="1">
          <mxGeometry width="50" height="50" relative="1" as="geometry">
            <mxPoint x="40" y="170" as="sourcePoint" />
            <mxPoint x="90" y="120" as="targetPoint" />
          </mxGeometry>
        </mxCell>
        <mxCell id="VJ-zcvntP25eQYUmrIv2-70" value="+ tambahLaporanPembelian()" style="text;strokeColor=none;fillColor=none;align=left;verticalAlign=middle;spacingLeft=4;spacingRight=4;overflow=hidden;points=[[0,0.5],[1,0.5]];portConstraint=eastwest;rotatable=0;whiteSpace=wrap;html=1;" parent="VJ-zcvntP25eQYUmrIv2-62" vertex="1">
          <mxGeometry y="210" width="180.07" height="30" as="geometry" />
        </mxCell>
        <mxCell id="VJ-zcvntP25eQYUmrIv2-71" value="Akun_Game_Sementara" style="swimlane;fontStyle=0;childLayout=stackLayout;horizontal=1;startSize=30;horizontalStack=0;resizeParent=1;resizeParentMax=0;resizeLast=0;collapsible=1;marginBottom=0;whiteSpace=wrap;html=1;" parent="1" vertex="1">
          <mxGeometry x="-230" y="630" width="170" height="240" as="geometry" />
        </mxCell>
        <mxCell id="VJ-zcvntP25eQYUmrIv2-72" value="# id_akungame" style="text;strokeColor=none;fillColor=none;align=left;verticalAlign=middle;spacingLeft=4;spacingRight=4;overflow=hidden;points=[[0,0.5],[1,0.5]];portConstraint=eastwest;rotatable=0;whiteSpace=wrap;html=1;" parent="VJ-zcvntP25eQYUmrIv2-71" vertex="1">
          <mxGeometry y="30" width="170" height="30" as="geometry" />
        </mxCell>
        <mxCell id="VJ-zcvntP25eQYUmrIv2-73" value="# username_pengguna" style="text;strokeColor=none;fillColor=none;align=left;verticalAlign=middle;spacingLeft=4;spacingRight=4;overflow=hidden;points=[[0,0.5],[1,0.5]];portConstraint=eastwest;rotatable=0;whiteSpace=wrap;html=1;" parent="VJ-zcvntP25eQYUmrIv2-71" vertex="1">
          <mxGeometry y="60" width="170" height="30" as="geometry" />
        </mxCell>
        <mxCell id="VJ-zcvntP25eQYUmrIv2-74" value="# id_game" style="text;strokeColor=none;fillColor=none;align=left;verticalAlign=middle;spacingLeft=4;spacingRight=4;overflow=hidden;points=[[0,0.5],[1,0.5]];portConstraint=eastwest;rotatable=0;whiteSpace=wrap;html=1;" parent="VJ-zcvntP25eQYUmrIv2-71" vertex="1">
          <mxGeometry y="90" width="170" height="30" as="geometry" />
        </mxCell>
        <mxCell id="VJ-zcvntP25eQYUmrIv2-75" value="+ harga" style="text;strokeColor=none;fillColor=none;align=left;verticalAlign=middle;spacingLeft=4;spacingRight=4;overflow=hidden;points=[[0,0.5],[1,0.5]];portConstraint=eastwest;rotatable=0;whiteSpace=wrap;html=1;" parent="VJ-zcvntP25eQYUmrIv2-71" vertex="1">
          <mxGeometry y="120" width="170" height="30" as="geometry" />
        </mxCell>
        <mxCell id="VJ-zcvntP25eQYUmrIv2-76" value="# data_akun" style="text;strokeColor=none;fillColor=none;align=left;verticalAlign=middle;spacingLeft=4;spacingRight=4;overflow=hidden;points=[[0,0.5],[1,0.5]];portConstraint=eastwest;rotatable=0;whiteSpace=wrap;html=1;" parent="VJ-zcvntP25eQYUmrIv2-71" vertex="1">
          <mxGeometry y="150" width="170" height="30" as="geometry" />
        </mxCell>
        <mxCell id="VJ-zcvntP25eQYUmrIv2-77" value="+ deskripsi_akun" style="text;strokeColor=none;fillColor=none;align=left;verticalAlign=middle;spacingLeft=4;spacingRight=4;overflow=hidden;points=[[0,0.5],[1,0.5]];portConstraint=eastwest;rotatable=0;whiteSpace=wrap;html=1;" parent="VJ-zcvntP25eQYUmrIv2-71" vertex="1">
          <mxGeometry y="180" width="170" height="30" as="geometry" />
        </mxCell>
        <mxCell id="VJ-zcvntP25eQYUmrIv2-78" value="" style="endArrow=none;html=1;rounded=0;entryX=1.003;entryY=-0.011;entryDx=0;entryDy=0;entryPerimeter=0;" parent="VJ-zcvntP25eQYUmrIv2-71" target="VJ-zcvntP25eQYUmrIv2-79" edge="1">
          <mxGeometry width="50" height="50" relative="1" as="geometry">
            <mxPoint y="209.76999999999998" as="sourcePoint" />
            <mxPoint x="140" y="209.76999999999998" as="targetPoint" />
          </mxGeometry>
        </mxCell>
        <mxCell id="VJ-zcvntP25eQYUmrIv2-79" value="+ validasiAkunGame()" style="text;strokeColor=none;fillColor=none;align=left;verticalAlign=middle;spacingLeft=4;spacingRight=4;overflow=hidden;points=[[0,0.5],[1,0.5]];portConstraint=eastwest;rotatable=0;whiteSpace=wrap;html=1;" parent="VJ-zcvntP25eQYUmrIv2-71" vertex="1">
          <mxGeometry y="210" width="170" height="30" as="geometry" />
        </mxCell>
        <mxCell id="VJ-zcvntP25eQYUmrIv2-80" value="" style="endArrow=none;endFill=0;endSize=12;html=1;rounded=0;edgeStyle=orthogonalEdgeStyle;" parent="1" source="VJ-zcvntP25eQYUmrIv2-15" target="VJ-zcvntP25eQYUmrIv2-1" edge="1">
          <mxGeometry width="160" relative="1" as="geometry">
            <mxPoint x="-40" y="180" as="sourcePoint" />
            <mxPoint x="120" y="180" as="targetPoint" />
            <Array as="points">
              <mxPoint x="60" y="60" />
              <mxPoint x="60" y="60" />
            </Array>
          </mxGeometry>
        </mxCell>
        <mxCell id="VJ-zcvntP25eQYUmrIv2-81" value="1...*" style="edgeLabel;html=1;align=center;verticalAlign=middle;resizable=0;points=[];" parent="VJ-zcvntP25eQYUmrIv2-80" vertex="1" connectable="0">
          <mxGeometry x="0.837" y="-2" relative="1" as="geometry">
            <mxPoint y="-8" as="offset" />
          </mxGeometry>
        </mxCell>
        <mxCell id="VJ-zcvntP25eQYUmrIv2-82" value="1" style="edgeLabel;html=1;align=center;verticalAlign=middle;resizable=0;points=[];" parent="VJ-zcvntP25eQYUmrIv2-80" vertex="1" connectable="0">
          <mxGeometry x="-0.7968" y="-1" relative="1" as="geometry">
            <mxPoint y="-9" as="offset" />
          </mxGeometry>
        </mxCell>
        <mxCell id="VJ-zcvntP25eQYUmrIv2-83" value="" style="endArrow=none;endFill=0;endSize=12;html=1;rounded=0;edgeStyle=orthogonalEdgeStyle;" parent="1" source="VJ-zcvntP25eQYUmrIv2-15" target="VJ-zcvntP25eQYUmrIv2-33" edge="1">
          <mxGeometry width="160" relative="1" as="geometry">
            <mxPoint x="160" y="70" as="sourcePoint" />
            <mxPoint x="-50" y="70" as="targetPoint" />
            <Array as="points">
              <mxPoint x="420" y="60" />
              <mxPoint x="420" y="60" />
            </Array>
          </mxGeometry>
        </mxCell>
        <mxCell id="VJ-zcvntP25eQYUmrIv2-84" value="1...*" style="edgeLabel;html=1;align=center;verticalAlign=middle;resizable=0;points=[];" parent="VJ-zcvntP25eQYUmrIv2-83" vertex="1" connectable="0">
          <mxGeometry x="-0.7998" relative="1" as="geometry">
            <mxPoint y="-10" as="offset" />
          </mxGeometry>
        </mxCell>
        <mxCell id="VJ-zcvntP25eQYUmrIv2-85" value="1" style="edgeLabel;html=1;align=center;verticalAlign=middle;resizable=0;points=[];" parent="VJ-zcvntP25eQYUmrIv2-83" vertex="1" connectable="0">
          <mxGeometry x="0.7838" y="-1" relative="1" as="geometry">
            <mxPoint y="-11" as="offset" />
          </mxGeometry>
        </mxCell>
        <mxCell id="VJ-zcvntP25eQYUmrIv2-86" value="" style="endArrow=none;endFill=0;endSize=12;html=1;rounded=0;edgeStyle=orthogonalEdgeStyle;" parent="1" source="VJ-zcvntP25eQYUmrIv2-1" target="VJ-zcvntP25eQYUmrIv2-71" edge="1">
          <mxGeometry width="160" relative="1" as="geometry">
            <mxPoint x="-50" y="290" as="sourcePoint" />
            <mxPoint x="175" y="530" as="targetPoint" />
            <Array as="points" />
          </mxGeometry>
        </mxCell>
        <mxCell id="VJ-zcvntP25eQYUmrIv2-87" value="" style="endArrow=diamondThin;endFill=1;endSize=24;html=1;rounded=0;edgeStyle=orthogonalEdgeStyle;" parent="1" source="VJ-zcvntP25eQYUmrIv2-71" target="VJ-zcvntP25eQYUmrIv2-56" edge="1">
          <mxGeometry width="160" relative="1" as="geometry">
            <mxPoint x="-60" y="907" as="sourcePoint" />
            <mxPoint x="160" y="678" as="targetPoint" />
            <Array as="points">
              <mxPoint x="50" y="690" />
              <mxPoint x="50" y="690" />
            </Array>
          </mxGeometry>
        </mxCell>
        <mxCell id="VJ-zcvntP25eQYUmrIv2-88" value="1" style="edgeLabel;html=1;align=center;verticalAlign=middle;resizable=0;points=[];" parent="VJ-zcvntP25eQYUmrIv2-87" vertex="1" connectable="0">
          <mxGeometry x="-0.8673" y="2" relative="1" as="geometry">
            <mxPoint y="-8" as="offset" />
          </mxGeometry>
        </mxCell>
        <mxCell id="VJ-zcvntP25eQYUmrIv2-89" value="1" style="edgeLabel;html=1;align=center;verticalAlign=middle;resizable=0;points=[];" parent="VJ-zcvntP25eQYUmrIv2-87" vertex="1" connectable="0">
          <mxGeometry x="0.6564" relative="1" as="geometry">
            <mxPoint y="-10" as="offset" />
          </mxGeometry>
        </mxCell>
        <mxCell id="VJ-zcvntP25eQYUmrIv2-90" value="" style="endArrow=diamondThin;endFill=1;endSize=24;html=1;rounded=0;edgeStyle=orthogonalEdgeStyle;" parent="1" source="VJ-zcvntP25eQYUmrIv2-46" target="VJ-zcvntP25eQYUmrIv2-56" edge="1">
          <mxGeometry width="160" relative="1" as="geometry">
            <mxPoint x="-50" y="620" as="sourcePoint" />
            <mxPoint x="170" y="620" as="targetPoint" />
            <Array as="points">
              <mxPoint x="420" y="690" />
              <mxPoint x="420" y="690" />
            </Array>
          </mxGeometry>
        </mxCell>
        <mxCell id="VJ-zcvntP25eQYUmrIv2-91" value="0...*" style="edgeLabel;html=1;align=center;verticalAlign=middle;resizable=0;points=[];" parent="VJ-zcvntP25eQYUmrIv2-90" vertex="1" connectable="0">
          <mxGeometry x="-0.6558" relative="1" as="geometry">
            <mxPoint x="10" y="-10" as="offset" />
          </mxGeometry>
        </mxCell>
        <mxCell id="VJ-zcvntP25eQYUmrIv2-92" value="1" style="edgeLabel;html=1;align=center;verticalAlign=middle;resizable=0;points=[];" parent="VJ-zcvntP25eQYUmrIv2-90" vertex="1" connectable="0">
          <mxGeometry x="0.665" y="2" relative="1" as="geometry">
            <mxPoint y="-12" as="offset" />
          </mxGeometry>
        </mxCell>
        <mxCell id="VJ-zcvntP25eQYUmrIv2-93" value="" style="endArrow=block;endFill=0;endSize=24;html=1;rounded=0;edgeStyle=orthogonalEdgeStyle;dashed=1;" parent="1" source="VJ-zcvntP25eQYUmrIv2-71" target="VJ-zcvntP25eQYUmrIv2-46" edge="1">
          <mxGeometry width="160" relative="1" as="geometry">
            <mxPoint x="-50" y="660" as="sourcePoint" />
            <mxPoint x="170" y="660" as="targetPoint" />
            <Array as="points">
              <mxPoint x="230" y="780" />
              <mxPoint x="230" y="780" />
            </Array>
          </mxGeometry>
        </mxCell>
        <mxCell id="VJ-zcvntP25eQYUmrIv2-94" value="0...*" style="edgeLabel;html=1;align=center;verticalAlign=middle;resizable=0;points=[];" parent="VJ-zcvntP25eQYUmrIv2-93" vertex="1" connectable="0">
          <mxGeometry x="-0.9584" relative="1" as="geometry">
            <mxPoint x="8" y="-10" as="offset" />
          </mxGeometry>
        </mxCell>
        <mxCell id="VJ-zcvntP25eQYUmrIv2-95" value="0...*" style="edgeLabel;html=1;align=center;verticalAlign=middle;resizable=0;points=[];" parent="VJ-zcvntP25eQYUmrIv2-93" vertex="1" connectable="0">
          <mxGeometry x="0.8168" y="2" relative="1" as="geometry">
            <mxPoint y="-8" as="offset" />
          </mxGeometry>
        </mxCell>
        <mxCell id="VJ-zcvntP25eQYUmrIv2-96" value="" style="endArrow=none;endFill=0;endSize=12;html=1;rounded=0;edgeStyle=orthogonalEdgeStyle;jumpStyle=arc;" parent="1" source="VJ-zcvntP25eQYUmrIv2-15" target="VJ-zcvntP25eQYUmrIv2-71" edge="1">
          <mxGeometry width="160" relative="1" as="geometry">
            <mxPoint x="-50" y="370" as="sourcePoint" />
            <mxPoint x="610" y="640" as="targetPoint" />
            <Array as="points">
              <mxPoint x="80" y="340" />
              <mxPoint x="80" y="640" />
            </Array>
          </mxGeometry>
        </mxCell>
        <mxCell id="VJ-zcvntP25eQYUmrIv2-97" value="0...*" style="edgeLabel;html=1;align=center;verticalAlign=middle;resizable=0;points=[];" parent="VJ-zcvntP25eQYUmrIv2-96" vertex="1" connectable="0">
          <mxGeometry x="0.9392" y="4" relative="1" as="geometry">
            <mxPoint y="-14" as="offset" />
          </mxGeometry>
        </mxCell>
        <mxCell id="VJ-zcvntP25eQYUmrIv2-98" value="1" style="edgeLabel;html=1;align=center;verticalAlign=middle;resizable=0;points=[];" parent="VJ-zcvntP25eQYUmrIv2-96" vertex="1" connectable="0">
          <mxGeometry x="-0.7961" y="-3" relative="1" as="geometry">
            <mxPoint x="32" y="-7" as="offset" />
          </mxGeometry>
        </mxCell>
        <mxCell id="VJ-zcvntP25eQYUmrIv2-99" value="" style="endArrow=none;endFill=0;endSize=12;html=1;rounded=0;jumpStyle=arc;edgeStyle=orthogonalEdgeStyle;entryX=0.5;entryY=0;entryDx=0;entryDy=0;" parent="1" source="VJ-zcvntP25eQYUmrIv2-33" target="VJ-zcvntP25eQYUmrIv2-62" edge="1">
          <mxGeometry width="160" relative="1" as="geometry">
            <mxPoint x="240" y="350" as="sourcePoint" />
            <mxPoint x="240" y="530" as="targetPoint" />
            <Array as="points">
              <mxPoint x="930" y="60" />
            </Array>
          </mxGeometry>
        </mxCell>
        <mxCell id="VJ-zcvntP25eQYUmrIv2-100" value="1" style="edgeLabel;html=1;align=center;verticalAlign=middle;resizable=0;points=[];" parent="VJ-zcvntP25eQYUmrIv2-99" vertex="1" connectable="0">
          <mxGeometry x="-0.8907" y="2" relative="1" as="geometry">
            <mxPoint y="-13" as="offset" />
          </mxGeometry>
        </mxCell>
        <mxCell id="VJ-zcvntP25eQYUmrIv2-101" value="1" style="edgeLabel;html=1;align=center;verticalAlign=middle;resizable=0;points=[];" parent="VJ-zcvntP25eQYUmrIv2-99" vertex="1" connectable="0">
          <mxGeometry x="0.8644" y="1" relative="1" as="geometry">
            <mxPoint x="9" as="offset" />
          </mxGeometry>
        </mxCell>
        <mxCell id="VJ-zcvntP25eQYUmrIv2-102" value="" style="endArrow=diamondThin;endFill=1;endSize=24;html=1;rounded=0;edgeStyle=orthogonalEdgeStyle;" parent="1" source="VJ-zcvntP25eQYUmrIv2-46" target="VJ-zcvntP25eQYUmrIv2-62" edge="1">
          <mxGeometry width="160" relative="1" as="geometry">
            <mxPoint x="540" y="660" as="sourcePoint" />
            <mxPoint x="310" y="660" as="targetPoint" />
            <Array as="points">
              <mxPoint x="930" y="690" />
            </Array>
          </mxGeometry>
        </mxCell>
        <mxCell id="VJ-zcvntP25eQYUmrIv2-103" value="1...*" style="edgeLabel;html=1;align=center;verticalAlign=middle;resizable=0;points=[];" parent="VJ-zcvntP25eQYUmrIv2-102" vertex="1" connectable="0">
          <mxGeometry x="-0.8887" y="2" relative="1" as="geometry">
            <mxPoint x="12" y="-8" as="offset" />
          </mxGeometry>
        </mxCell>
        <mxCell id="VJ-zcvntP25eQYUmrIv2-104" value="1" style="edgeLabel;html=1;align=center;verticalAlign=middle;resizable=0;points=[];" parent="VJ-zcvntP25eQYUmrIv2-102" vertex="1" connectable="0">
          <mxGeometry x="0.7101" relative="1" as="geometry">
            <mxPoint x="10" y="-6" as="offset" />
          </mxGeometry>
        </mxCell>
        <mxCell id="hmnptcz41ve9KlR_A6HI-1" value="Pengguna" style="swimlane;fontStyle=0;childLayout=stackLayout;horizontal=1;startSize=30;horizontalStack=0;resizeParent=1;resizeParentMax=0;resizeLast=0;collapsible=1;marginBottom=0;whiteSpace=wrap;html=1;" parent="1" vertex="1">
          <mxGeometry x="20.14" y="1120" width="140" height="240" as="geometry" />
        </mxCell>
        <mxCell id="hmnptcz41ve9KlR_A6HI-2" value="# ID" style="text;strokeColor=none;fillColor=none;align=left;verticalAlign=middle;spacingLeft=4;spacingRight=4;overflow=hidden;points=[[0,0.5],[1,0.5]];portConstraint=eastwest;rotatable=0;whiteSpace=wrap;html=1;" parent="hmnptcz41ve9KlR_A6HI-1" vertex="1">
          <mxGeometry y="30" width="140" height="30" as="geometry" />
        </mxCell>
        <mxCell id="hmnptcz41ve9KlR_A6HI-3" value="- username" style="text;strokeColor=none;fillColor=none;align=left;verticalAlign=middle;spacingLeft=4;spacingRight=4;overflow=hidden;points=[[0,0.5],[1,0.5]];portConstraint=eastwest;rotatable=0;whiteSpace=wrap;html=1;" parent="hmnptcz41ve9KlR_A6HI-1" vertex="1">
          <mxGeometry y="60" width="140" height="30" as="geometry" />
        </mxCell>
        <mxCell id="hmnptcz41ve9KlR_A6HI-4" value="- password" style="text;strokeColor=none;fillColor=none;align=left;verticalAlign=middle;spacingLeft=4;spacingRight=4;overflow=hidden;points=[[0,0.5],[1,0.5]];portConstraint=eastwest;rotatable=0;whiteSpace=wrap;html=1;" parent="hmnptcz41ve9KlR_A6HI-1" vertex="1">
          <mxGeometry y="90" width="140" height="30" as="geometry" />
        </mxCell>
        <mxCell id="hmnptcz41ve9KlR_A6HI-7" value="" style="endArrow=none;html=1;rounded=0;exitX=-0.001;exitY=-0.027;exitDx=0;exitDy=0;exitPerimeter=0;" parent="hmnptcz41ve9KlR_A6HI-1" edge="1">
          <mxGeometry width="50" height="50" relative="1" as="geometry">
            <mxPoint x="-0.13999999999987267" y="119.19000000000028" as="sourcePoint" />
            <mxPoint x="140" y="119" as="targetPoint" />
          </mxGeometry>
        </mxCell>
        <mxCell id="hmnptcz41ve9KlR_A6HI-8" value="+ login()" style="text;strokeColor=none;fillColor=none;align=left;verticalAlign=middle;spacingLeft=4;spacingRight=4;overflow=hidden;points=[[0,0.5],[1,0.5]];portConstraint=eastwest;rotatable=0;whiteSpace=wrap;html=1;" parent="hmnptcz41ve9KlR_A6HI-1" vertex="1">
          <mxGeometry y="120" width="140" height="30" as="geometry" />
        </mxCell>
        <mxCell id="hmnptcz41ve9KlR_A6HI-10" value="+ lihatSepatu()" style="text;strokeColor=none;fillColor=none;align=left;verticalAlign=middle;spacingLeft=4;spacingRight=4;overflow=hidden;points=[[0,0.5],[1,0.5]];portConstraint=eastwest;rotatable=0;whiteSpace=wrap;html=1;" parent="hmnptcz41ve9KlR_A6HI-1" vertex="1">
          <mxGeometry y="150" width="140" height="30" as="geometry" />
        </mxCell>
        <mxCell id="hmnptcz41ve9KlR_A6HI-11" value="+ searchSepatu()" style="text;strokeColor=none;fillColor=none;align=left;verticalAlign=middle;spacingLeft=4;spacingRight=4;overflow=hidden;points=[[0,0.5],[1,0.5]];portConstraint=eastwest;rotatable=0;whiteSpace=wrap;html=1;" parent="hmnptcz41ve9KlR_A6HI-1" vertex="1">
          <mxGeometry y="180" width="140" height="30" as="geometry" />
        </mxCell>
        <mxCell id="hmnptcz41ve9KlR_A6HI-14" value="+ logout()" style="text;strokeColor=none;fillColor=none;align=left;verticalAlign=middle;spacingLeft=4;spacingRight=4;overflow=hidden;points=[[0,0.5],[1,0.5]];portConstraint=eastwest;rotatable=0;whiteSpace=wrap;html=1;" parent="hmnptcz41ve9KlR_A6HI-1" vertex="1">
          <mxGeometry y="210" width="140" height="30" as="geometry" />
        </mxCell>
        <mxCell id="hmnptcz41ve9KlR_A6HI-15" value="Admin" style="swimlane;fontStyle=0;childLayout=stackLayout;horizontal=1;startSize=30;horizontalStack=0;resizeParent=1;resizeParentMax=0;resizeLast=0;collapsible=1;marginBottom=0;whiteSpace=wrap;html=1;" parent="1" vertex="1">
          <mxGeometry x="670.14" y="1120" width="140" height="330" as="geometry" />
        </mxCell>
        <mxCell id="hmnptcz41ve9KlR_A6HI-16" value="# ID" style="text;strokeColor=none;fillColor=none;align=left;verticalAlign=middle;spacingLeft=4;spacingRight=4;overflow=hidden;points=[[0,0.5],[1,0.5]];portConstraint=eastwest;rotatable=0;whiteSpace=wrap;html=1;" parent="hmnptcz41ve9KlR_A6HI-15" vertex="1">
          <mxGeometry y="30" width="140" height="30" as="geometry" />
        </mxCell>
        <mxCell id="hmnptcz41ve9KlR_A6HI-17" value="- username" style="text;strokeColor=none;fillColor=none;align=left;verticalAlign=middle;spacingLeft=4;spacingRight=4;overflow=hidden;points=[[0,0.5],[1,0.5]];portConstraint=eastwest;rotatable=0;whiteSpace=wrap;html=1;" parent="hmnptcz41ve9KlR_A6HI-15" vertex="1">
          <mxGeometry y="60" width="140" height="30" as="geometry" />
        </mxCell>
        <mxCell id="hmnptcz41ve9KlR_A6HI-18" value="- password" style="text;strokeColor=none;fillColor=none;align=left;verticalAlign=middle;spacingLeft=4;spacingRight=4;overflow=hidden;points=[[0,0.5],[1,0.5]];portConstraint=eastwest;rotatable=0;whiteSpace=wrap;html=1;" parent="hmnptcz41ve9KlR_A6HI-15" vertex="1">
          <mxGeometry y="90" width="140" height="30" as="geometry" />
        </mxCell>
        <mxCell id="hmnptcz41ve9KlR_A6HI-21" value="" style="endArrow=none;html=1;rounded=0;exitX=-0.001;exitY=-0.027;exitDx=0;exitDy=0;exitPerimeter=0;" parent="hmnptcz41ve9KlR_A6HI-15" edge="1">
          <mxGeometry width="50" height="50" relative="1" as="geometry">
            <mxPoint x="-0.13999999999987267" y="119.18999999999983" as="sourcePoint" />
            <mxPoint x="140" y="119" as="targetPoint" />
          </mxGeometry>
        </mxCell>
        <mxCell id="hmnptcz41ve9KlR_A6HI-22" value="+ login()" style="text;strokeColor=none;fillColor=none;align=left;verticalAlign=middle;spacingLeft=4;spacingRight=4;overflow=hidden;points=[[0,0.5],[1,0.5]];portConstraint=eastwest;rotatable=0;whiteSpace=wrap;html=1;" parent="hmnptcz41ve9KlR_A6HI-15" vertex="1">
          <mxGeometry y="120" width="140" height="30" as="geometry" />
        </mxCell>
        <mxCell id="hmnptcz41ve9KlR_A6HI-23" value="+ inputSepatu()" style="text;strokeColor=none;fillColor=none;align=left;verticalAlign=middle;spacingLeft=4;spacingRight=4;overflow=hidden;points=[[0,0.5],[1,0.5]];portConstraint=eastwest;rotatable=0;whiteSpace=wrap;html=1;" parent="hmnptcz41ve9KlR_A6HI-15" vertex="1">
          <mxGeometry y="150" width="140" height="30" as="geometry" />
        </mxCell>
        <mxCell id="hmnptcz41ve9KlR_A6HI-24" value="+ lihatSepatu()" style="text;strokeColor=none;fillColor=none;align=left;verticalAlign=middle;spacingLeft=4;spacingRight=4;overflow=hidden;points=[[0,0.5],[1,0.5]];portConstraint=eastwest;rotatable=0;whiteSpace=wrap;html=1;" parent="hmnptcz41ve9KlR_A6HI-15" vertex="1">
          <mxGeometry y="180" width="140" height="30" as="geometry" />
        </mxCell>
        <mxCell id="hmnptcz41ve9KlR_A6HI-27" value="+ updateSepatu()" style="text;strokeColor=none;fillColor=none;align=left;verticalAlign=middle;spacingLeft=4;spacingRight=4;overflow=hidden;points=[[0,0.5],[1,0.5]];portConstraint=eastwest;rotatable=0;whiteSpace=wrap;html=1;" parent="hmnptcz41ve9KlR_A6HI-15" vertex="1">
          <mxGeometry y="210" width="140" height="30" as="geometry" />
        </mxCell>
        <mxCell id="hmnptcz41ve9KlR_A6HI-39" value="+ HapusSepatu()" style="text;strokeColor=none;fillColor=none;align=left;verticalAlign=middle;spacingLeft=4;spacingRight=4;overflow=hidden;points=[[0,0.5],[1,0.5]];portConstraint=eastwest;rotatable=0;whiteSpace=wrap;html=1;" parent="hmnptcz41ve9KlR_A6HI-15" vertex="1">
          <mxGeometry y="240" width="140" height="30" as="geometry" />
        </mxCell>
        <mxCell id="hmnptcz41ve9KlR_A6HI-25" value="+ searchSepatu()" style="text;strokeColor=none;fillColor=none;align=left;verticalAlign=middle;spacingLeft=4;spacingRight=4;overflow=hidden;points=[[0,0.5],[1,0.5]];portConstraint=eastwest;rotatable=0;whiteSpace=wrap;html=1;" parent="hmnptcz41ve9KlR_A6HI-15" vertex="1">
          <mxGeometry y="270" width="140" height="30" as="geometry" />
        </mxCell>
        <mxCell id="hmnptcz41ve9KlR_A6HI-28" value="+ logout()" style="text;strokeColor=none;fillColor=none;align=left;verticalAlign=middle;spacingLeft=4;spacingRight=4;overflow=hidden;points=[[0,0.5],[1,0.5]];portConstraint=eastwest;rotatable=0;whiteSpace=wrap;html=1;" parent="hmnptcz41ve9KlR_A6HI-15" vertex="1">
          <mxGeometry y="300" width="140" height="30" as="geometry" />
        </mxCell>
        <mxCell id="hmnptcz41ve9KlR_A6HI-40" value="Sepatu" style="swimlane;fontStyle=0;childLayout=stackLayout;horizontal=1;startSize=30;horizontalStack=0;resizeParent=1;resizeParentMax=0;resizeLast=0;collapsible=1;marginBottom=0;whiteSpace=wrap;html=1;" parent="1" vertex="1">
          <mxGeometry x="335.14" y="1120" width="140" height="236" as="geometry" />
        </mxCell>
        <mxCell id="hmnptcz41ve9KlR_A6HI-41" value="# id_sepatu" style="text;strokeColor=none;fillColor=none;align=left;verticalAlign=middle;spacingLeft=4;spacingRight=4;overflow=hidden;points=[[0,0.5],[1,0.5]];portConstraint=eastwest;rotatable=0;whiteSpace=wrap;html=1;" parent="hmnptcz41ve9KlR_A6HI-40" vertex="1">
          <mxGeometry y="30" width="140" height="30" as="geometry" />
        </mxCell>
        <mxCell id="hmnptcz41ve9KlR_A6HI-44" value="+ merk" style="text;strokeColor=none;fillColor=none;align=left;verticalAlign=middle;spacingLeft=4;spacingRight=4;overflow=hidden;points=[[0,0.5],[1,0.5]];portConstraint=eastwest;rotatable=0;whiteSpace=wrap;html=1;" parent="hmnptcz41ve9KlR_A6HI-40" vertex="1">
          <mxGeometry y="60" width="140" height="30" as="geometry" />
        </mxCell>
        <mxCell id="hmnptcz41ve9KlR_A6HI-45" value="+ ukuran" style="text;strokeColor=none;fillColor=none;align=left;verticalAlign=middle;spacingLeft=4;spacingRight=4;overflow=hidden;points=[[0,0.5],[1,0.5]];portConstraint=eastwest;rotatable=0;whiteSpace=wrap;html=1;" parent="hmnptcz41ve9KlR_A6HI-40" vertex="1">
          <mxGeometry y="90" width="140" height="30" as="geometry" />
        </mxCell>
        <mxCell id="hmnptcz41ve9KlR_A6HI-46" value="+ warna" style="text;strokeColor=none;fillColor=none;align=left;verticalAlign=top;spacingLeft=4;spacingRight=4;overflow=hidden;rotatable=0;points=[[0,0.5],[1,0.5]];portConstraint=eastwest;whiteSpace=wrap;html=1;" parent="hmnptcz41ve9KlR_A6HI-40" vertex="1">
          <mxGeometry y="120" width="140" height="26" as="geometry" />
        </mxCell>
        <mxCell id="hmnptcz41ve9KlR_A6HI-47" value="+ kategori" style="text;strokeColor=none;fillColor=none;align=left;verticalAlign=middle;spacingLeft=4;spacingRight=4;overflow=hidden;points=[[0,0.5],[1,0.5]];portConstraint=eastwest;rotatable=0;whiteSpace=wrap;html=1;" parent="hmnptcz41ve9KlR_A6HI-40" vertex="1">
          <mxGeometry y="146" width="140" height="30" as="geometry" />
        </mxCell>
        <mxCell id="hmnptcz41ve9KlR_A6HI-50" value="+ tanggal" style="text;strokeColor=none;fillColor=none;align=left;verticalAlign=middle;spacingLeft=4;spacingRight=4;overflow=hidden;points=[[0,0.5],[1,0.5]];portConstraint=eastwest;rotatable=0;whiteSpace=wrap;html=1;" parent="hmnptcz41ve9KlR_A6HI-40" vertex="1">
          <mxGeometry y="176" width="140" height="30" as="geometry" />
        </mxCell>
        <mxCell id="hmnptcz41ve9KlR_A6HI-48" value="+ listSepatu()" style="text;strokeColor=none;fillColor=none;align=left;verticalAlign=middle;spacingLeft=4;spacingRight=4;overflow=hidden;points=[[0,0.5],[1,0.5]];portConstraint=eastwest;rotatable=0;whiteSpace=wrap;html=1;" parent="hmnptcz41ve9KlR_A6HI-40" vertex="1">
          <mxGeometry y="206" width="140" height="30" as="geometry" />
        </mxCell>
        <mxCell id="hmnptcz41ve9KlR_A6HI-49" value="" style="endArrow=none;html=1;rounded=0;exitX=0.002;exitY=-0.001;exitDx=0;exitDy=0;exitPerimeter=0;entryX=0.999;entryY=0.005;entryDx=0;entryDy=0;entryPerimeter=0;" parent="hmnptcz41ve9KlR_A6HI-40" source="hmnptcz41ve9KlR_A6HI-48" target="hmnptcz41ve9KlR_A6HI-48" edge="1">
          <mxGeometry width="50" height="50" relative="1" as="geometry">
            <mxPoint x="40" y="170" as="sourcePoint" />
            <mxPoint x="90" y="120" as="targetPoint" />
          </mxGeometry>
        </mxCell>
        <mxCell id="hmnptcz41ve9KlR_A6HI-51" value="" style="endArrow=diamondThin;endFill=1;endSize=24;html=1;rounded=0;edgeStyle=orthogonalEdgeStyle;exitX=0;exitY=0.5;exitDx=0;exitDy=0;entryX=1;entryY=0.5;entryDx=0;entryDy=0;" parent="1" source="hmnptcz41ve9KlR_A6HI-44" target="hmnptcz41ve9KlR_A6HI-3" edge="1">
          <mxGeometry width="160" relative="1" as="geometry">
            <mxPoint x="161.14" y="1195" as="sourcePoint" />
            <mxPoint x="220.14" y="1250" as="targetPoint" />
            <Array as="points" />
          </mxGeometry>
        </mxCell>
        <mxCell id="hmnptcz41ve9KlR_A6HI-52" value="0...*" style="edgeLabel;html=1;align=center;verticalAlign=middle;resizable=0;points=[];" parent="hmnptcz41ve9KlR_A6HI-51" vertex="1" connectable="0">
          <mxGeometry x="-0.8887" y="2" relative="1" as="geometry">
            <mxPoint x="-15" y="-17" as="offset" />
          </mxGeometry>
        </mxCell>
        <mxCell id="hmnptcz41ve9KlR_A6HI-53" value="1" style="edgeLabel;html=1;align=center;verticalAlign=middle;resizable=0;points=[];" parent="hmnptcz41ve9KlR_A6HI-51" vertex="1" connectable="0">
          <mxGeometry x="0.7101" relative="1" as="geometry">
            <mxPoint x="15" y="-15" as="offset" />
          </mxGeometry>
        </mxCell>
        <mxCell id="hmnptcz41ve9KlR_A6HI-55" value="" style="endArrow=diamondThin;endFill=1;endSize=24;html=1;rounded=0;edgeStyle=orthogonalEdgeStyle;entryX=0;entryY=0.5;entryDx=0;entryDy=0;exitX=1;exitY=0.5;exitDx=0;exitDy=0;" parent="1" source="hmnptcz41ve9KlR_A6HI-44" target="hmnptcz41ve9KlR_A6HI-17" edge="1">
          <mxGeometry width="160" relative="1" as="geometry">
            <mxPoint x="550.14" y="1260" as="sourcePoint" />
            <mxPoint x="345.14" y="1205" as="targetPoint" />
            <Array as="points" />
          </mxGeometry>
        </mxCell>
        <mxCell id="hmnptcz41ve9KlR_A6HI-56" value="1...*" style="edgeLabel;html=1;align=center;verticalAlign=middle;resizable=0;points=[];" parent="hmnptcz41ve9KlR_A6HI-55" vertex="1" connectable="0">
          <mxGeometry x="-0.8887" y="2" relative="1" as="geometry">
            <mxPoint x="24" y="-13" as="offset" />
          </mxGeometry>
        </mxCell>
        <mxCell id="hmnptcz41ve9KlR_A6HI-57" value="1" style="edgeLabel;html=1;align=center;verticalAlign=middle;resizable=0;points=[];" parent="hmnptcz41ve9KlR_A6HI-55" vertex="1" connectable="0">
          <mxGeometry x="0.7101" relative="1" as="geometry">
            <mxPoint x="-22" y="-15" as="offset" />
          </mxGeometry>
        </mxCell>
        <mxCell id="hmnptcz41ve9KlR_A6HI-58" value="" style="shape=flexArrow;endArrow=classic;html=1;rounded=0;endWidth=95.3125;endSize=28.4;width=32.5;" parent="1" edge="1">
          <mxGeometry width="50" height="50" relative="1" as="geometry">
            <mxPoint x="-380" y="970" as="sourcePoint" />
            <mxPoint x="-80" y="1200" as="targetPoint" />
          </mxGeometry>
        </mxCell>
      </root>
    </mxGraphModel>
  </diagram>
  <diagram id="rhsvA52pb6JKTCp8iUlC" name="dfd 0">
    <mxGraphModel dx="1036" dy="530" grid="1" gridSize="10" guides="1" tooltips="1" connect="1" arrows="1" fold="1" page="1" pageScale="1" pageWidth="850" pageHeight="1100" math="0" shadow="0">
      <root>
        <mxCell id="0" />
        <mxCell id="1" parent="0" />
        <mxCell id="bdX5p8X3mmWj0vGkQDNJ-1" value="&lt;p align=&quot;center&quot; class=&quot;MsoNormal&quot;&gt;&lt;font style=&quot;font-size: 12px;&quot;&gt;Proses Admin Mengubah Sepatu&lt;/font&gt;&lt;/p&gt;" style="swimlane;childLayout=stackLayout;resizeParent=1;resizeParentMax=0;startSize=20;html=1;swimlaneFillColor=default;" vertex="1" parent="1">
          <mxGeometry x="260" y="620" width="400" height="480" as="geometry" />
        </mxCell>
        <mxCell id="bdX5p8X3mmWj0vGkQDNJ-2" value="Admin" style="swimlane;startSize=20;html=1;" vertex="1" parent="bdX5p8X3mmWj0vGkQDNJ-1">
          <mxGeometry y="20" width="200" height="460" as="geometry" />
        </mxCell>
        <mxCell id="bdX5p8X3mmWj0vGkQDNJ-3" value="Pilih data Sepatu pada tabel" style="rounded=1;whiteSpace=wrap;html=1;arcSize=40;fontColor=#000000;fillColor=#ffffc0;strokeColor=#ff0000;" vertex="1" parent="bdX5p8X3mmWj0vGkQDNJ-2">
          <mxGeometry x="37.5" y="140" width="125" height="30" as="geometry" />
        </mxCell>
        <mxCell id="bdX5p8X3mmWj0vGkQDNJ-4" value="Mengubah Data&amp;nbsp;&lt;br&gt;Sepatu" style="rounded=1;whiteSpace=wrap;html=1;arcSize=40;fontColor=#000000;fillColor=#ffffc0;strokeColor=#ff0000;" vertex="1" parent="bdX5p8X3mmWj0vGkQDNJ-2">
          <mxGeometry x="37.5" y="268" width="125" height="30" as="geometry" />
        </mxCell>
        <mxCell id="bdX5p8X3mmWj0vGkQDNJ-5" value="" style="edgeStyle=orthogonalEdgeStyle;html=1;verticalAlign=bottom;endArrow=open;endSize=8;strokeColor=#000000;rounded=0;exitX=0.5;exitY=1;exitDx=0;exitDy=0;entryX=0;entryY=0.5;entryDx=0;entryDy=0;" edge="1" parent="bdX5p8X3mmWj0vGkQDNJ-1" source="bdX5p8X3mmWj0vGkQDNJ-3" target="bdX5p8X3mmWj0vGkQDNJ-12">
          <mxGeometry relative="1" as="geometry">
            <mxPoint x="161.5" y="340" as="targetPoint" />
            <mxPoint x="248" y="196" as="sourcePoint" />
            <Array as="points">
              <mxPoint x="100" y="234" />
            </Array>
          </mxGeometry>
        </mxCell>
        <mxCell id="bdX5p8X3mmWj0vGkQDNJ-6" value="" style="edgeStyle=orthogonalEdgeStyle;html=1;verticalAlign=bottom;endArrow=open;endSize=8;strokeColor=#000000;rounded=0;entryX=1;entryY=0.5;entryDx=0;entryDy=0;" edge="1" parent="bdX5p8X3mmWj0vGkQDNJ-1" source="bdX5p8X3mmWj0vGkQDNJ-12" target="bdX5p8X3mmWj0vGkQDNJ-4">
          <mxGeometry relative="1" as="geometry">
            <mxPoint x="230" y="370" as="targetPoint" />
            <mxPoint x="508.5" y="86" as="sourcePoint" />
            <Array as="points">
              <mxPoint x="302" y="303" />
            </Array>
          </mxGeometry>
        </mxCell>
        <mxCell id="bdX5p8X3mmWj0vGkQDNJ-7" value="" style="edgeStyle=orthogonalEdgeStyle;html=1;verticalAlign=bottom;endArrow=open;endSize=8;strokeColor=#000000;rounded=0;exitX=0.5;exitY=1;exitDx=0;exitDy=0;entryX=0;entryY=0.5;entryDx=0;entryDy=0;" edge="1" parent="bdX5p8X3mmWj0vGkQDNJ-1" source="bdX5p8X3mmWj0vGkQDNJ-4" target="bdX5p8X3mmWj0vGkQDNJ-13">
          <mxGeometry relative="1" as="geometry">
            <mxPoint x="238" y="387" as="targetPoint" />
            <mxPoint x="248" y="302" as="sourcePoint" />
            <Array as="points">
              <mxPoint x="100" y="362" />
            </Array>
          </mxGeometry>
        </mxCell>
        <mxCell id="bdX5p8X3mmWj0vGkQDNJ-8" value="Sistem" style="swimlane;startSize=20;html=1;" vertex="1" parent="bdX5p8X3mmWj0vGkQDNJ-1">
          <mxGeometry x="200" y="20" width="200" height="460" as="geometry" />
        </mxCell>
        <mxCell id="bdX5p8X3mmWj0vGkQDNJ-9" value="" style="ellipse;html=1;shape=startState;fillColor=#000000;strokeColor=#ff0000;" vertex="1" parent="bdX5p8X3mmWj0vGkQDNJ-8">
          <mxGeometry x="85" y="27" width="30" height="30" as="geometry" />
        </mxCell>
        <mxCell id="bdX5p8X3mmWj0vGkQDNJ-10" value="" style="edgeStyle=orthogonalEdgeStyle;html=1;verticalAlign=bottom;endArrow=open;endSize=8;strokeColor=#000000;rounded=0;entryX=0.5;entryY=0;entryDx=0;entryDy=0;" edge="1" parent="bdX5p8X3mmWj0vGkQDNJ-8" source="bdX5p8X3mmWj0vGkQDNJ-9" target="bdX5p8X3mmWj0vGkQDNJ-15">
          <mxGeometry relative="1" as="geometry">
            <mxPoint x="100.5" y="86" as="targetPoint" />
          </mxGeometry>
        </mxCell>
        <mxCell id="bdX5p8X3mmWj0vGkQDNJ-11" value="" style="ellipse;html=1;shape=endState;fillColor=#000000;strokeColor=#ff0000;" vertex="1" parent="bdX5p8X3mmWj0vGkQDNJ-8">
          <mxGeometry x="85" y="398" width="30" height="30" as="geometry" />
        </mxCell>
        <mxCell id="bdX5p8X3mmWj0vGkQDNJ-12" value="Menampilkan detail data sepatu pada inputan" style="rounded=1;whiteSpace=wrap;html=1;arcSize=40;fontColor=#000000;fillColor=#ffffc0;strokeColor=#ff0000;" vertex="1" parent="bdX5p8X3mmWj0vGkQDNJ-8">
          <mxGeometry x="37.5" y="190" width="125" height="47" as="geometry" />
        </mxCell>
        <mxCell id="bdX5p8X3mmWj0vGkQDNJ-13" value="Simpan Data ke Database Sepatu" style="rounded=1;whiteSpace=wrap;html=1;arcSize=40;fontColor=#000000;fillColor=#ffffc0;strokeColor=#ff0000;" vertex="1" parent="bdX5p8X3mmWj0vGkQDNJ-8">
          <mxGeometry x="37.5" y="327" width="125" height="30" as="geometry" />
        </mxCell>
        <mxCell id="bdX5p8X3mmWj0vGkQDNJ-14" value="" style="edgeStyle=orthogonalEdgeStyle;html=1;verticalAlign=bottom;endArrow=open;endSize=8;strokeColor=#000000;rounded=0;exitX=0.5;exitY=1;exitDx=0;exitDy=0;" edge="1" parent="bdX5p8X3mmWj0vGkQDNJ-8" source="bdX5p8X3mmWj0vGkQDNJ-13" target="bdX5p8X3mmWj0vGkQDNJ-11">
          <mxGeometry relative="1" as="geometry">
            <mxPoint x="99" y="407" as="targetPoint" />
            <mxPoint x="248.5" y="318" as="sourcePoint" />
            <Array as="points" />
          </mxGeometry>
        </mxCell>
        <mxCell id="bdX5p8X3mmWj0vGkQDNJ-15" value="Page CRUD" style="rounded=1;whiteSpace=wrap;html=1;arcSize=40;fontColor=#000000;fillColor=#ffffc0;strokeColor=#ff0000;" vertex="1" parent="bdX5p8X3mmWj0vGkQDNJ-8">
          <mxGeometry x="37.5" y="90" width="125" height="30" as="geometry" />
        </mxCell>
        <mxCell id="bdX5p8X3mmWj0vGkQDNJ-16" value="" style="edgeStyle=orthogonalEdgeStyle;html=1;verticalAlign=bottom;endArrow=open;endSize=8;strokeColor=#000000;rounded=0;entryX=1;entryY=0.5;entryDx=0;entryDy=0;exitX=0.5;exitY=1;exitDx=0;exitDy=0;" edge="1" parent="bdX5p8X3mmWj0vGkQDNJ-1" source="bdX5p8X3mmWj0vGkQDNJ-15" target="bdX5p8X3mmWj0vGkQDNJ-3">
          <mxGeometry relative="1" as="geometry">
            <mxPoint x="320" y="130" as="targetPoint" />
            <mxPoint x="320" y="97" as="sourcePoint" />
          </mxGeometry>
        </mxCell>
      </root>
    </mxGraphModel>
  </diagram>
  <diagram id="ZIGnn4VT9hwd_lutUGiF" name="dfd 1">
    <mxGraphModel dx="1036" dy="530" grid="1" gridSize="10" guides="1" tooltips="1" connect="1" arrows="1" fold="1" page="1" pageScale="1" pageWidth="850" pageHeight="1100" math="0" shadow="0">
      <root>
        <mxCell id="0" />
        <mxCell id="1" parent="0" />
        <mxCell id="IS-KMVeVSp_FH4N4d3RE-1" value="&lt;p align=&quot;center&quot; class=&quot;MsoNormal&quot;&gt;Proses Login Admin&lt;br&gt;&lt;/p&gt;" style="swimlane;childLayout=stackLayout;resizeParent=1;resizeParentMax=0;startSize=20;html=1;fillColor=default;gradientColor=none;swimlaneFillColor=default;" vertex="1" parent="1">
          <mxGeometry x="596.25" y="50" width="401.5" height="520" as="geometry" />
        </mxCell>
        <mxCell id="IS-KMVeVSp_FH4N4d3RE-2" value="Admin" style="swimlane;startSize=20;html=1;" vertex="1" parent="IS-KMVeVSp_FH4N4d3RE-1">
          <mxGeometry y="20" width="200.5" height="500" as="geometry" />
        </mxCell>
        <mxCell id="IS-KMVeVSp_FH4N4d3RE-3" value="Mengisi Form&lt;br&gt;Login" style="rounded=1;whiteSpace=wrap;html=1;arcSize=40;fontColor=#000000;fillColor=#ffffc0;strokeColor=#ff0000;" vertex="1" parent="IS-KMVeVSp_FH4N4d3RE-2">
          <mxGeometry x="31.25" y="102.5" width="120" height="40" as="geometry" />
        </mxCell>
        <mxCell id="IS-KMVeVSp_FH4N4d3RE-4" value="Sistem" style="swimlane;startSize=20;html=1;" vertex="1" parent="IS-KMVeVSp_FH4N4d3RE-1">
          <mxGeometry x="200.5" y="20" width="201" height="500" as="geometry" />
        </mxCell>
        <mxCell id="IS-KMVeVSp_FH4N4d3RE-5" value="" style="ellipse;html=1;shape=startState;fillColor=#000000;strokeColor=#ff0000;" vertex="1" parent="IS-KMVeVSp_FH4N4d3RE-4">
          <mxGeometry x="78" y="32.5" width="30" height="30" as="geometry" />
        </mxCell>
        <mxCell id="IS-KMVeVSp_FH4N4d3RE-6" value="" style="edgeStyle=orthogonalEdgeStyle;html=1;verticalAlign=bottom;endArrow=open;endSize=8;strokeColor=#000000;rounded=0;entryX=0.5;entryY=0;entryDx=0;entryDy=0;" edge="1" parent="IS-KMVeVSp_FH4N4d3RE-4" source="IS-KMVeVSp_FH4N4d3RE-5" target="IS-KMVeVSp_FH4N4d3RE-7">
          <mxGeometry relative="1" as="geometry">
            <mxPoint x="93" y="262.5" as="targetPoint" />
            <mxPoint x="-17" y="197.5" as="sourcePoint" />
          </mxGeometry>
        </mxCell>
        <mxCell id="IS-KMVeVSp_FH4N4d3RE-7" value="Halaman Login" style="rounded=1;whiteSpace=wrap;html=1;arcSize=40;fontColor=#000000;fillColor=#ffffc0;strokeColor=#ff0000;" vertex="1" parent="IS-KMVeVSp_FH4N4d3RE-4">
          <mxGeometry x="33" y="102.5" width="120" height="40" as="geometry" />
        </mxCell>
        <mxCell id="IS-KMVeVSp_FH4N4d3RE-8" value="Verifikasi Akun" style="rounded=1;whiteSpace=wrap;html=1;arcSize=40;fontColor=#000000;fillColor=#ffffc0;strokeColor=#ff0000;" vertex="1" parent="IS-KMVeVSp_FH4N4d3RE-4">
          <mxGeometry x="33" y="192.5" width="120" height="40" as="geometry" />
        </mxCell>
        <mxCell id="IS-KMVeVSp_FH4N4d3RE-9" value="no" style="edgeStyle=orthogonalEdgeStyle;html=1;align=left;verticalAlign=bottom;endArrow=open;endSize=8;strokeColor=#000000;rounded=0;entryX=1;entryY=0.5;entryDx=0;entryDy=0;exitX=1;exitY=0.5;exitDx=0;exitDy=0;" edge="1" parent="IS-KMVeVSp_FH4N4d3RE-4" source="IS-KMVeVSp_FH4N4d3RE-11" target="IS-KMVeVSp_FH4N4d3RE-7">
          <mxGeometry x="-1" relative="1" as="geometry">
            <mxPoint x="243" y="472.5" as="targetPoint" />
            <Array as="points">
              <mxPoint x="183" y="293" />
              <mxPoint x="183" y="123" />
            </Array>
          </mxGeometry>
        </mxCell>
        <mxCell id="IS-KMVeVSp_FH4N4d3RE-10" value="" style="edgeStyle=orthogonalEdgeStyle;html=1;verticalAlign=bottom;endArrow=open;endSize=8;strokeColor=#000000;rounded=0;" edge="1" parent="IS-KMVeVSp_FH4N4d3RE-4" source="IS-KMVeVSp_FH4N4d3RE-8" target="IS-KMVeVSp_FH4N4d3RE-11">
          <mxGeometry relative="1" as="geometry">
            <mxPoint x="103" y="452.5" as="targetPoint" />
            <mxPoint x="103" y="392.5" as="sourcePoint" />
          </mxGeometry>
        </mxCell>
        <mxCell id="IS-KMVeVSp_FH4N4d3RE-11" value="" style="rhombus;whiteSpace=wrap;html=1;fontColor=#000000;fillColor=none;strokeColor=#000000;" vertex="1" parent="IS-KMVeVSp_FH4N4d3RE-4">
          <mxGeometry x="68" y="272.5" width="50" height="40" as="geometry" />
        </mxCell>
        <mxCell id="IS-KMVeVSp_FH4N4d3RE-12" value="Tampilkan Page Admin" style="rounded=1;whiteSpace=wrap;html=1;arcSize=40;fontColor=#000000;fillColor=#ffffc0;strokeColor=#ff0000;" vertex="1" parent="IS-KMVeVSp_FH4N4d3RE-4">
          <mxGeometry x="33" y="367.5" width="120" height="40" as="geometry" />
        </mxCell>
        <mxCell id="IS-KMVeVSp_FH4N4d3RE-13" value="yes" style="edgeStyle=orthogonalEdgeStyle;html=1;align=left;verticalAlign=top;endArrow=open;endSize=8;strokeColor=#000000;rounded=0;entryX=0.5;entryY=0;entryDx=0;entryDy=0;" edge="1" parent="IS-KMVeVSp_FH4N4d3RE-4" source="IS-KMVeVSp_FH4N4d3RE-11" target="IS-KMVeVSp_FH4N4d3RE-12">
          <mxGeometry x="-1" relative="1" as="geometry">
            <mxPoint x="93" y="437.5" as="targetPoint" />
          </mxGeometry>
        </mxCell>
        <mxCell id="IS-KMVeVSp_FH4N4d3RE-14" value="" style="edgeStyle=orthogonalEdgeStyle;html=1;verticalAlign=bottom;endArrow=open;endSize=8;strokeColor=#000000;rounded=0;" edge="1" parent="IS-KMVeVSp_FH4N4d3RE-4" source="IS-KMVeVSp_FH4N4d3RE-12" target="IS-KMVeVSp_FH4N4d3RE-15">
          <mxGeometry relative="1" as="geometry">
            <mxPoint x="93" y="537.5" as="targetPoint" />
            <mxPoint x="93" y="477.5" as="sourcePoint" />
          </mxGeometry>
        </mxCell>
        <mxCell id="IS-KMVeVSp_FH4N4d3RE-15" value="" style="ellipse;html=1;shape=endState;fillColor=#000000;strokeColor=#ff0000;" vertex="1" parent="IS-KMVeVSp_FH4N4d3RE-4">
          <mxGeometry x="78" y="437.5" width="30" height="30" as="geometry" />
        </mxCell>
        <mxCell id="IS-KMVeVSp_FH4N4d3RE-16" value="" style="edgeStyle=orthogonalEdgeStyle;html=1;verticalAlign=bottom;endArrow=open;endSize=8;strokeColor=#000000;rounded=0;entryX=1;entryY=0.5;entryDx=0;entryDy=0;" edge="1" parent="IS-KMVeVSp_FH4N4d3RE-1" source="IS-KMVeVSp_FH4N4d3RE-7" target="IS-KMVeVSp_FH4N4d3RE-3">
          <mxGeometry relative="1" as="geometry">
            <mxPoint x="-205" y="225" as="targetPoint" />
          </mxGeometry>
        </mxCell>
        <mxCell id="IS-KMVeVSp_FH4N4d3RE-17" value="" style="edgeStyle=orthogonalEdgeStyle;html=1;verticalAlign=bottom;endArrow=open;endSize=8;strokeColor=#000000;rounded=0;entryX=0;entryY=0.5;entryDx=0;entryDy=0;exitX=0.5;exitY=1;exitDx=0;exitDy=0;" edge="1" parent="IS-KMVeVSp_FH4N4d3RE-1" source="IS-KMVeVSp_FH4N4d3RE-3" target="IS-KMVeVSp_FH4N4d3RE-8">
          <mxGeometry relative="1" as="geometry">
            <mxPoint x="-375" y="390" as="targetPoint" />
          </mxGeometry>
        </mxCell>
      </root>
    </mxGraphModel>
  </diagram>
  <diagram id="43jsIr2ncMI2nhItKgn4" name="use case">
    <mxGraphModel dx="1036" dy="530" grid="1" gridSize="10" guides="1" tooltips="1" connect="1" arrows="1" fold="1" page="1" pageScale="1" pageWidth="850" pageHeight="1100" math="0" shadow="0">
      <root>
        <mxCell id="0" />
        <mxCell id="1" parent="0" />
        <mxCell id="y-PNCNy5ulQUgSdY-q5Q-1" value="&lt;p align=&quot;center&quot; class=&quot;MsoNormal&quot;&gt;&lt;font style=&quot;font-size: 12px;&quot;&gt;Sistem Pendataan Sepatu&lt;/font&gt;&lt;/p&gt;" style="swimlane;childLayout=stackLayout;resizeParent=1;resizeParentMax=0;startSize=20;html=1;fillColor=default;gradientColor=none;swimlaneFillColor=default;" vertex="1" parent="1">
          <mxGeometry x="51" y="10" width="401.5" height="560" as="geometry" />
        </mxCell>
        <mxCell id="y-PNCNy5ulQUgSdY-q5Q-2" value="" style="edgeStyle=orthogonalEdgeStyle;html=1;verticalAlign=bottom;endArrow=open;endSize=8;strokeColor=#000000;rounded=0;exitX=0;exitY=0.5;exitDx=0;exitDy=0;entryX=0.5;entryY=1;entryDx=0;entryDy=0;" edge="1" parent="y-PNCNy5ulQUgSdY-q5Q-1" source="y-PNCNy5ulQUgSdY-q5Q-14" target="y-PNCNy5ulQUgSdY-q5Q-7">
          <mxGeometry relative="1" as="geometry">
            <mxPoint x="310" y="547" as="targetPoint" />
            <mxPoint x="311" y="495" as="sourcePoint" />
            <Array as="points" />
          </mxGeometry>
        </mxCell>
        <mxCell id="y-PNCNy5ulQUgSdY-q5Q-3" value="Sistem" style="swimlane;startSize=20;html=1;" vertex="1" parent="y-PNCNy5ulQUgSdY-q5Q-1">
          <mxGeometry y="20" width="200.5" height="540" as="geometry" />
        </mxCell>
        <mxCell id="y-PNCNy5ulQUgSdY-q5Q-4" value="" style="ellipse;html=1;shape=startState;fillColor=#000000;strokeColor=#ff0000;" vertex="1" parent="y-PNCNy5ulQUgSdY-q5Q-3">
          <mxGeometry x="85.5" y="40" width="30" height="30" as="geometry" />
        </mxCell>
        <mxCell id="y-PNCNy5ulQUgSdY-q5Q-5" value="" style="edgeStyle=orthogonalEdgeStyle;html=1;verticalAlign=bottom;endArrow=open;endSize=8;strokeColor=#000000;rounded=0;entryX=0.5;entryY=0;entryDx=0;entryDy=0;exitX=0.508;exitY=0.834;exitDx=0;exitDy=0;exitPerimeter=0;" edge="1" parent="y-PNCNy5ulQUgSdY-q5Q-3" source="y-PNCNy5ulQUgSdY-q5Q-4" target="y-PNCNy5ulQUgSdY-q5Q-6">
          <mxGeometry relative="1" as="geometry">
            <mxPoint x="89" y="97" as="targetPoint" />
          </mxGeometry>
        </mxCell>
        <mxCell id="y-PNCNy5ulQUgSdY-q5Q-6" value="&lt;font style=&quot;font-size: 12px;&quot;&gt;Tampilan Login&lt;/font&gt;" style="rounded=1;whiteSpace=wrap;html=1;arcSize=40;fontColor=#000000;fillColor=#ffffc0;strokeColor=#ff0000;" vertex="1" parent="y-PNCNy5ulQUgSdY-q5Q-3">
          <mxGeometry x="38" y="100" width="125" height="30" as="geometry" />
        </mxCell>
        <mxCell id="y-PNCNy5ulQUgSdY-q5Q-7" value="&lt;font style=&quot;font-size: 12px;&quot;&gt;Data Sepatu&lt;/font&gt;" style="rounded=1;whiteSpace=wrap;html=1;arcSize=40;fontColor=#000000;fillColor=#ffffc0;strokeColor=#ff0000;" vertex="1" parent="y-PNCNy5ulQUgSdY-q5Q-3">
          <mxGeometry x="38" y="290" width="125" height="30" as="geometry" />
        </mxCell>
        <mxCell id="y-PNCNy5ulQUgSdY-q5Q-8" value="Data Akun Admin" style="rounded=1;whiteSpace=wrap;html=1;arcSize=40;fontColor=#000000;fillColor=#ffffc0;strokeColor=#ff0000;" vertex="1" parent="y-PNCNy5ulQUgSdY-q5Q-3">
          <mxGeometry x="38" y="170" width="125" height="30" as="geometry" />
        </mxCell>
        <mxCell id="y-PNCNy5ulQUgSdY-q5Q-9" value="Admin" style="swimlane;startSize=20;html=1;" vertex="1" parent="y-PNCNy5ulQUgSdY-q5Q-1">
          <mxGeometry x="200.5" y="20" width="201" height="540" as="geometry" />
        </mxCell>
        <mxCell id="y-PNCNy5ulQUgSdY-q5Q-10" value="" style="edgeStyle=orthogonalEdgeStyle;html=1;verticalAlign=bottom;endArrow=open;endSize=8;strokeColor=#000000;rounded=0;entryX=0.5;entryY=0;entryDx=0;entryDy=0;exitX=0.5;exitY=1;exitDx=0;exitDy=0;" edge="1" parent="y-PNCNy5ulQUgSdY-q5Q-9" source="y-PNCNy5ulQUgSdY-q5Q-16" target="y-PNCNy5ulQUgSdY-q5Q-17">
          <mxGeometry relative="1" as="geometry">
            <mxPoint x="100" y="260" as="targetPoint" />
            <mxPoint x="100" y="220" as="sourcePoint" />
            <Array as="points" />
          </mxGeometry>
        </mxCell>
        <mxCell id="y-PNCNy5ulQUgSdY-q5Q-11" value="Logout" style="rounded=1;whiteSpace=wrap;html=1;arcSize=40;fontColor=#000000;fillColor=#ffffc0;strokeColor=#ff0000;" vertex="1" parent="y-PNCNy5ulQUgSdY-q5Q-9">
          <mxGeometry x="38" y="420" width="125" height="30" as="geometry" />
        </mxCell>
        <mxCell id="y-PNCNy5ulQUgSdY-q5Q-12" value="" style="edgeStyle=orthogonalEdgeStyle;html=1;verticalAlign=bottom;endArrow=open;endSize=8;strokeColor=#000000;rounded=0;exitX=0.5;exitY=1;exitDx=0;exitDy=0;" edge="1" parent="y-PNCNy5ulQUgSdY-q5Q-9" source="y-PNCNy5ulQUgSdY-q5Q-11" target="y-PNCNy5ulQUgSdY-q5Q-19">
          <mxGeometry relative="1" as="geometry">
            <mxPoint x="100.5" y="491" as="targetPoint" />
            <mxPoint x="111" y="381" as="sourcePoint" />
            <Array as="points" />
          </mxGeometry>
        </mxCell>
        <mxCell id="y-PNCNy5ulQUgSdY-q5Q-13" value="" style="edgeStyle=orthogonalEdgeStyle;html=1;verticalAlign=bottom;endArrow=open;endSize=8;strokeColor=#000000;rounded=0;" edge="1" parent="y-PNCNy5ulQUgSdY-q5Q-9" source="y-PNCNy5ulQUgSdY-q5Q-14" target="y-PNCNy5ulQUgSdY-q5Q-11">
          <mxGeometry relative="1" as="geometry">
            <mxPoint x="100.02941176470586" y="716" as="targetPoint" />
            <mxPoint x="99.5" y="607" as="sourcePoint" />
          </mxGeometry>
        </mxCell>
        <mxCell id="y-PNCNy5ulQUgSdY-q5Q-14" value="Search Sepatu" style="rounded=1;whiteSpace=wrap;html=1;arcSize=40;fontColor=#000000;fillColor=#ffffc0;strokeColor=#ff0000;" vertex="1" parent="y-PNCNy5ulQUgSdY-q5Q-9">
          <mxGeometry x="38" y="340" width="125" height="30" as="geometry" />
        </mxCell>
        <mxCell id="y-PNCNy5ulQUgSdY-q5Q-15" value="" style="swimlane;fontStyle=1;align=center;verticalAlign=middle;childLayout=stackLayout;horizontal=1;startSize=13;horizontalStack=0;resizeParent=0;resizeLast=1;container=0;fontColor=#000000;collapsible=0;rounded=1;arcSize=50;strokeColor=#ff0000;fillColor=#ffffc0;swimlaneFillColor=#ffffc0;dropTarget=0;" vertex="1" parent="y-PNCNy5ulQUgSdY-q5Q-9">
          <mxGeometry x="38" y="90" width="125" height="40" as="geometry" />
        </mxCell>
        <mxCell id="y-PNCNy5ulQUgSdY-q5Q-16" value="Login Admin" style="text;html=1;strokeColor=none;fillColor=none;align=center;verticalAlign=middle;spacingLeft=4;spacingRight=4;whiteSpace=wrap;overflow=hidden;rotatable=0;fontColor=#000000;" vertex="1" parent="y-PNCNy5ulQUgSdY-q5Q-15">
          <mxGeometry y="13" width="125" height="27" as="geometry" />
        </mxCell>
        <mxCell id="y-PNCNy5ulQUgSdY-q5Q-17" value="" style="swimlane;fontStyle=1;align=center;verticalAlign=middle;childLayout=stackLayout;horizontal=1;startSize=13;horizontalStack=0;resizeParent=0;resizeLast=1;container=0;fontColor=#000000;collapsible=0;rounded=1;arcSize=50;strokeColor=#ff0000;fillColor=#ffffc0;swimlaneFillColor=#ffffc0;dropTarget=0;" vertex="1" parent="y-PNCNy5ulQUgSdY-q5Q-9">
          <mxGeometry x="38" y="220" width="125" height="47" as="geometry" />
        </mxCell>
        <mxCell id="y-PNCNy5ulQUgSdY-q5Q-18" value="CRUD data Sepatu" style="text;html=1;strokeColor=none;fillColor=none;align=center;verticalAlign=middle;spacingLeft=4;spacingRight=4;whiteSpace=wrap;overflow=hidden;rotatable=0;fontColor=#000000;" vertex="1" parent="y-PNCNy5ulQUgSdY-q5Q-17">
          <mxGeometry y="13" width="125" height="34" as="geometry" />
        </mxCell>
        <mxCell id="y-PNCNy5ulQUgSdY-q5Q-19" value="" style="ellipse;html=1;shape=endState;fillColor=#000000;strokeColor=#ff0000;" vertex="1" parent="y-PNCNy5ulQUgSdY-q5Q-9">
          <mxGeometry x="85.5" y="490" width="30" height="30" as="geometry" />
        </mxCell>
        <mxCell id="y-PNCNy5ulQUgSdY-q5Q-20" value="" style="edgeStyle=orthogonalEdgeStyle;html=1;verticalAlign=bottom;endArrow=open;endSize=8;strokeColor=#000000;rounded=0;exitX=0.5;exitY=1;exitDx=0;exitDy=0;" edge="1" parent="y-PNCNy5ulQUgSdY-q5Q-9" source="y-PNCNy5ulQUgSdY-q5Q-18" target="y-PNCNy5ulQUgSdY-q5Q-14">
          <mxGeometry relative="1" as="geometry">
            <mxPoint x="111" y="230" as="targetPoint" />
            <mxPoint x="111" y="140" as="sourcePoint" />
            <Array as="points">
              <mxPoint x="101" y="277" />
              <mxPoint x="101" y="320" />
            </Array>
          </mxGeometry>
        </mxCell>
        <mxCell id="y-PNCNy5ulQUgSdY-q5Q-21" value="" style="edgeStyle=orthogonalEdgeStyle;html=1;verticalAlign=bottom;endArrow=open;endSize=8;strokeColor=#000000;rounded=0;entryX=-0.001;entryY=0.459;entryDx=0;entryDy=0;exitX=1;exitY=0.5;exitDx=0;exitDy=0;entryPerimeter=0;" edge="1" parent="y-PNCNy5ulQUgSdY-q5Q-1" source="y-PNCNy5ulQUgSdY-q5Q-6" target="y-PNCNy5ulQUgSdY-q5Q-16">
          <mxGeometry relative="1" as="geometry">
            <mxPoint x="100" y="170" as="targetPoint" />
            <Array as="points">
              <mxPoint x="200" y="135" />
            </Array>
          </mxGeometry>
        </mxCell>
        <mxCell id="y-PNCNy5ulQUgSdY-q5Q-22" value="" style="edgeStyle=orthogonalEdgeStyle;html=1;verticalAlign=bottom;endArrow=open;endSize=8;strokeColor=#000000;rounded=0;exitX=1;exitY=0.5;exitDx=0;exitDy=0;entryX=0.25;entryY=1;entryDx=0;entryDy=0;" edge="1" parent="y-PNCNy5ulQUgSdY-q5Q-1" source="y-PNCNy5ulQUgSdY-q5Q-8" target="y-PNCNy5ulQUgSdY-q5Q-16">
          <mxGeometry relative="1" as="geometry">
            <mxPoint x="239" y="215" as="targetPoint" />
            <mxPoint x="163.00000000000023" y="205" as="sourcePoint" />
            <Array as="points">
              <mxPoint x="270" y="205" />
            </Array>
          </mxGeometry>
        </mxCell>
        <mxCell id="y-PNCNy5ulQUgSdY-q5Q-23" value="" style="edgeStyle=orthogonalEdgeStyle;html=1;verticalAlign=bottom;endArrow=open;endSize=8;strokeColor=#000000;rounded=0;exitX=0.5;exitY=0;exitDx=0;exitDy=0;entryX=0;entryY=0.5;entryDx=0;entryDy=0;" edge="1" parent="y-PNCNy5ulQUgSdY-q5Q-1" source="y-PNCNy5ulQUgSdY-q5Q-7" target="y-PNCNy5ulQUgSdY-q5Q-18">
          <mxGeometry relative="1" as="geometry">
            <mxPoint x="280" y="160" as="targetPoint" />
            <mxPoint x="173" y="215" as="sourcePoint" />
            <Array as="points">
              <mxPoint x="99" y="310" />
              <mxPoint x="99" y="270" />
            </Array>
          </mxGeometry>
        </mxCell>
        <mxCell id="y-PNCNy5ulQUgSdY-q5Q-24" value="" style="edgeStyle=orthogonalEdgeStyle;html=1;verticalAlign=bottom;endArrow=open;endSize=8;strokeColor=#000000;rounded=0;entryX=1;entryY=0.5;entryDx=0;entryDy=0;exitX=0.25;exitY=1;exitDx=0;exitDy=0;" edge="1" parent="y-PNCNy5ulQUgSdY-q5Q-1" source="y-PNCNy5ulQUgSdY-q5Q-18" target="y-PNCNy5ulQUgSdY-q5Q-7">
          <mxGeometry relative="1" as="geometry">
            <mxPoint x="301" y="531" as="targetPoint" />
            <mxPoint x="300.5" y="406" as="sourcePoint" />
          </mxGeometry>
        </mxCell>
      </root>
    </mxGraphModel>
  </diagram>
  <diagram id="XULKElU9hsPZ1Ltb2dcO" name="activity">
    <mxGraphModel dx="2590" dy="1325" grid="1" gridSize="10" guides="1" tooltips="1" connect="1" arrows="1" fold="1" page="1" pageScale="1" pageWidth="850" pageHeight="1100" math="0" shadow="0">
      <root>
        <mxCell id="0" />
        <mxCell id="1" parent="0" />
        <mxCell id="oCwcuGvDwKmoWlp8KfYq-260" value="&lt;p align=&quot;center&quot; class=&quot;MsoNormal&quot;&gt;&lt;font style=&quot;font-size: 12px;&quot;&gt;Proses Admin Menghapus Sepatu&lt;/font&gt;&lt;/p&gt;" style="swimlane;childLayout=stackLayout;resizeParent=1;resizeParentMax=0;startSize=20;html=1;swimlaneFillColor=default;" parent="1" vertex="1">
          <mxGeometry x="220" y="530" width="400" height="500" as="geometry" />
        </mxCell>
        <mxCell id="oCwcuGvDwKmoWlp8KfYq-267" value="" style="edgeStyle=orthogonalEdgeStyle;html=1;verticalAlign=bottom;endArrow=open;endSize=8;strokeColor=#000000;rounded=0;exitX=0.5;exitY=1;exitDx=0;exitDy=0;entryX=0;entryY=0.5;entryDx=0;entryDy=0;" parent="oCwcuGvDwKmoWlp8KfYq-260" source="oCwcuGvDwKmoWlp8KfYq-263" target="oCwcuGvDwKmoWlp8KfYq-274" edge="1">
          <mxGeometry relative="1" as="geometry">
            <mxPoint x="231" y="501" as="targetPoint" />
            <mxPoint x="248" y="276" as="sourcePoint" />
            <Array as="points">
              <mxPoint x="100" y="391" />
            </Array>
          </mxGeometry>
        </mxCell>
        <mxCell id="oCwcuGvDwKmoWlp8KfYq-261" value="Admin" style="swimlane;startSize=20;html=1;" parent="oCwcuGvDwKmoWlp8KfYq-260" vertex="1">
          <mxGeometry y="20" width="200" height="480" as="geometry" />
        </mxCell>
        <mxCell id="oCwcuGvDwKmoWlp8KfYq-263" value="Pilih Hapus&amp;nbsp;" style="rounded=1;whiteSpace=wrap;html=1;arcSize=40;fontColor=#000000;fillColor=#ffffc0;strokeColor=#ff0000;" parent="oCwcuGvDwKmoWlp8KfYq-261" vertex="1">
          <mxGeometry x="42.75" y="280" width="125" height="30" as="geometry" />
        </mxCell>
        <mxCell id="5CmXGlYKD0w80Rdti8jx-31" value="Pilih data Sepatu pada tabel" style="rounded=1;whiteSpace=wrap;html=1;arcSize=40;fontColor=#000000;fillColor=#ffffc0;strokeColor=#ff0000;" parent="oCwcuGvDwKmoWlp8KfYq-261" vertex="1">
          <mxGeometry x="37.5" y="150" width="125" height="30" as="geometry" />
        </mxCell>
        <mxCell id="oCwcuGvDwKmoWlp8KfYq-266" value="" style="edgeStyle=orthogonalEdgeStyle;html=1;verticalAlign=bottom;endArrow=open;endSize=8;strokeColor=#000000;rounded=0;entryX=1;entryY=0.5;entryDx=0;entryDy=0;" parent="oCwcuGvDwKmoWlp8KfYq-260" source="5CmXGlYKD0w80Rdti8jx-30" target="5CmXGlYKD0w80Rdti8jx-31" edge="1">
          <mxGeometry relative="1" as="geometry">
            <mxPoint x="149" y="242" as="targetPoint" />
            <mxPoint x="300.5" y="202" as="sourcePoint" />
            <Array as="points">
              <mxPoint x="301" y="185" />
              <mxPoint x="163" y="185" />
            </Array>
          </mxGeometry>
        </mxCell>
        <mxCell id="oCwcuGvDwKmoWlp8KfYq-268" value="Sistem" style="swimlane;startSize=20;html=1;" parent="oCwcuGvDwKmoWlp8KfYq-260" vertex="1">
          <mxGeometry x="200" y="20" width="200" height="480" as="geometry" />
        </mxCell>
        <mxCell id="oCwcuGvDwKmoWlp8KfYq-269" value="" style="ellipse;html=1;shape=startState;fillColor=#000000;strokeColor=#ff0000;" parent="oCwcuGvDwKmoWlp8KfYq-268" vertex="1">
          <mxGeometry x="85" y="27" width="30" height="30" as="geometry" />
        </mxCell>
        <mxCell id="oCwcuGvDwKmoWlp8KfYq-270" value="" style="edgeStyle=orthogonalEdgeStyle;html=1;verticalAlign=bottom;endArrow=open;endSize=8;strokeColor=#000000;rounded=0;entryX=0.5;entryY=0;entryDx=0;entryDy=0;" parent="oCwcuGvDwKmoWlp8KfYq-268" source="oCwcuGvDwKmoWlp8KfYq-269" target="5CmXGlYKD0w80Rdti8jx-30" edge="1">
          <mxGeometry relative="1" as="geometry">
            <mxPoint x="100.5" y="86" as="targetPoint" />
          </mxGeometry>
        </mxCell>
        <mxCell id="oCwcuGvDwKmoWlp8KfYq-273" value="" style="ellipse;html=1;shape=endState;fillColor=#000000;strokeColor=#ff0000;" parent="oCwcuGvDwKmoWlp8KfYq-268" vertex="1">
          <mxGeometry x="85" y="421" width="30" height="30" as="geometry" />
        </mxCell>
        <mxCell id="oCwcuGvDwKmoWlp8KfYq-274" value="Hapus Data dari Database Sepatu" style="rounded=1;whiteSpace=wrap;html=1;arcSize=40;fontColor=#000000;fillColor=#ffffc0;strokeColor=#ff0000;" parent="oCwcuGvDwKmoWlp8KfYq-268" vertex="1">
          <mxGeometry x="38" y="356" width="125" height="30" as="geometry" />
        </mxCell>
        <mxCell id="oCwcuGvDwKmoWlp8KfYq-275" value="" style="edgeStyle=orthogonalEdgeStyle;html=1;verticalAlign=bottom;endArrow=open;endSize=8;strokeColor=#000000;rounded=0;exitX=0.5;exitY=1;exitDx=0;exitDy=0;" parent="oCwcuGvDwKmoWlp8KfYq-268" source="oCwcuGvDwKmoWlp8KfYq-274" target="oCwcuGvDwKmoWlp8KfYq-273" edge="1">
          <mxGeometry relative="1" as="geometry">
            <mxPoint x="99.5" y="436" as="targetPoint" />
            <mxPoint x="249" y="347" as="sourcePoint" />
            <Array as="points" />
          </mxGeometry>
        </mxCell>
        <mxCell id="5CmXGlYKD0w80Rdti8jx-30" value="Page CRUD" style="rounded=1;whiteSpace=wrap;html=1;arcSize=40;fontColor=#000000;fillColor=#ffffc0;strokeColor=#ff0000;" parent="oCwcuGvDwKmoWlp8KfYq-268" vertex="1">
          <mxGeometry x="38" y="90" width="125" height="30" as="geometry" />
        </mxCell>
        <mxCell id="5CmXGlYKD0w80Rdti8jx-34" value="Menampilkan detail data sepatu pada inputan" style="rounded=1;whiteSpace=wrap;html=1;arcSize=40;fontColor=#000000;fillColor=#ffffc0;strokeColor=#ff0000;" parent="oCwcuGvDwKmoWlp8KfYq-268" vertex="1">
          <mxGeometry x="38" y="200" width="125" height="47" as="geometry" />
        </mxCell>
        <mxCell id="5CmXGlYKD0w80Rdti8jx-33" value="" style="edgeStyle=orthogonalEdgeStyle;html=1;verticalAlign=bottom;endArrow=open;endSize=8;strokeColor=#000000;rounded=0;" parent="oCwcuGvDwKmoWlp8KfYq-260" source="5CmXGlYKD0w80Rdti8jx-34" target="oCwcuGvDwKmoWlp8KfYq-263" edge="1">
          <mxGeometry relative="1" as="geometry">
            <mxPoint x="163.5" y="313" as="targetPoint" />
            <mxPoint x="509" y="96" as="sourcePoint" />
            <Array as="points">
              <mxPoint x="303" y="313" />
            </Array>
          </mxGeometry>
        </mxCell>
        <mxCell id="5CmXGlYKD0w80Rdti8jx-32" value="" style="edgeStyle=orthogonalEdgeStyle;html=1;verticalAlign=bottom;endArrow=open;endSize=8;strokeColor=#000000;rounded=0;entryX=0;entryY=0.5;entryDx=0;entryDy=0;" parent="oCwcuGvDwKmoWlp8KfYq-260" source="5CmXGlYKD0w80Rdti8jx-31" target="5CmXGlYKD0w80Rdti8jx-34" edge="1">
          <mxGeometry relative="1" as="geometry">
            <mxPoint x="162" y="350" as="targetPoint" />
            <mxPoint x="100.5" y="200" as="sourcePoint" />
            <Array as="points">
              <mxPoint x="100" y="244" />
            </Array>
          </mxGeometry>
        </mxCell>
      </root>
    </mxGraphModel>
  </diagram>
  <diagram id="opZtiDTzmRUXARFwAiK2" name="Page-6">
    <mxGraphModel dx="1886" dy="530" grid="1" gridSize="10" guides="1" tooltips="1" connect="1" arrows="1" fold="1" page="1" pageScale="1" pageWidth="850" pageHeight="1100" math="0" shadow="0">
      <root>
        <mxCell id="0" />
        <mxCell id="1" parent="0" />
        <mxCell id="NGvsOuR53g8j-f88PqMH-1" value="&lt;p align=&quot;center&quot; class=&quot;MsoNormal&quot;&gt;&lt;font style=&quot;font-size: 12px;&quot;&gt;Proses Admin Menambahkan Sepatu&lt;/font&gt;&lt;/p&gt;" style="swimlane;childLayout=stackLayout;resizeParent=1;resizeParentMax=0;startSize=20;html=1;swimlaneFillColor=default;" vertex="1" parent="1">
          <mxGeometry x="-180" y="620" width="400" height="380" as="geometry" />
        </mxCell>
        <mxCell id="NGvsOuR53g8j-f88PqMH-2" value="" style="edgeStyle=orthogonalEdgeStyle;html=1;verticalAlign=bottom;endArrow=open;endSize=8;strokeColor=#000000;rounded=0;exitX=0.5;exitY=1;exitDx=0;exitDy=0;" edge="1" parent="NGvsOuR53g8j-f88PqMH-1" source="NGvsOuR53g8j-f88PqMH-4" target="NGvsOuR53g8j-f88PqMH-11">
          <mxGeometry relative="1" as="geometry">
            <mxPoint x="238" y="267" as="targetPoint" />
            <mxPoint x="248" y="159" as="sourcePoint" />
            <Array as="points">
              <mxPoint x="100" y="267" />
            </Array>
          </mxGeometry>
        </mxCell>
        <mxCell id="NGvsOuR53g8j-f88PqMH-3" value="Admin" style="swimlane;startSize=20;html=1;" vertex="1" parent="NGvsOuR53g8j-f88PqMH-1">
          <mxGeometry y="20" width="200" height="360" as="geometry" />
        </mxCell>
        <mxCell id="NGvsOuR53g8j-f88PqMH-4" value="Input Data Sepatu yang ingin ditambahkan" style="rounded=1;whiteSpace=wrap;html=1;arcSize=40;fontColor=#000000;fillColor=#ffffc0;strokeColor=#ff0000;" vertex="1" parent="NGvsOuR53g8j-f88PqMH-3">
          <mxGeometry x="30" y="116" width="125" height="43" as="geometry" />
        </mxCell>
        <mxCell id="NGvsOuR53g8j-f88PqMH-5" value="" style="edgeStyle=orthogonalEdgeStyle;html=1;verticalAlign=bottom;endArrow=open;endSize=8;strokeColor=#000000;rounded=0;entryX=1;entryY=0.5;entryDx=0;entryDy=0;exitX=0.25;exitY=1;exitDx=0;exitDy=0;" edge="1" parent="NGvsOuR53g8j-f88PqMH-1" source="NGvsOuR53g8j-f88PqMH-9" target="NGvsOuR53g8j-f88PqMH-4">
          <mxGeometry relative="1" as="geometry">
            <mxPoint x="149" y="242" as="targetPoint" />
            <mxPoint x="220" y="140" as="sourcePoint" />
            <Array as="points">
              <mxPoint x="269" y="158" />
              <mxPoint x="155" y="158" />
            </Array>
          </mxGeometry>
        </mxCell>
        <mxCell id="NGvsOuR53g8j-f88PqMH-6" value="Sistem" style="swimlane;startSize=20;html=1;" vertex="1" parent="NGvsOuR53g8j-f88PqMH-1">
          <mxGeometry x="200" y="20" width="200" height="360" as="geometry" />
        </mxCell>
        <mxCell id="NGvsOuR53g8j-f88PqMH-7" value="" style="ellipse;html=1;shape=startState;fillColor=#000000;strokeColor=#ff0000;" vertex="1" parent="NGvsOuR53g8j-f88PqMH-6">
          <mxGeometry x="85" y="27" width="30" height="30" as="geometry" />
        </mxCell>
        <mxCell id="NGvsOuR53g8j-f88PqMH-8" value="" style="edgeStyle=orthogonalEdgeStyle;html=1;verticalAlign=bottom;endArrow=open;endSize=8;strokeColor=#000000;rounded=0;entryX=0.5;entryY=0;entryDx=0;entryDy=0;" edge="1" parent="NGvsOuR53g8j-f88PqMH-6" source="NGvsOuR53g8j-f88PqMH-7" target="NGvsOuR53g8j-f88PqMH-9">
          <mxGeometry relative="1" as="geometry">
            <mxPoint x="89" y="97" as="targetPoint" />
          </mxGeometry>
        </mxCell>
        <mxCell id="NGvsOuR53g8j-f88PqMH-9" value="Page CRUD" style="rounded=1;whiteSpace=wrap;html=1;arcSize=40;fontColor=#000000;fillColor=#ffffc0;strokeColor=#ff0000;" vertex="1" parent="NGvsOuR53g8j-f88PqMH-6">
          <mxGeometry x="37.5" y="86" width="125" height="30" as="geometry" />
        </mxCell>
        <mxCell id="NGvsOuR53g8j-f88PqMH-10" value="" style="ellipse;html=1;shape=endState;fillColor=#000000;strokeColor=#ff0000;" vertex="1" parent="NGvsOuR53g8j-f88PqMH-6">
          <mxGeometry x="85" y="302" width="30" height="30" as="geometry" />
        </mxCell>
        <mxCell id="NGvsOuR53g8j-f88PqMH-11" value="Simpan Data ke Database Sepatu" style="rounded=1;whiteSpace=wrap;html=1;arcSize=40;fontColor=#000000;fillColor=#ffffc0;strokeColor=#ff0000;" vertex="1" parent="NGvsOuR53g8j-f88PqMH-6">
          <mxGeometry x="37.5" y="231" width="125" height="30" as="geometry" />
        </mxCell>
        <mxCell id="NGvsOuR53g8j-f88PqMH-12" value="" style="edgeStyle=orthogonalEdgeStyle;html=1;verticalAlign=bottom;endArrow=open;endSize=8;strokeColor=#000000;rounded=0;exitX=0.5;exitY=1;exitDx=0;exitDy=0;" edge="1" parent="NGvsOuR53g8j-f88PqMH-6" source="NGvsOuR53g8j-f88PqMH-11" target="NGvsOuR53g8j-f88PqMH-10">
          <mxGeometry relative="1" as="geometry">
            <mxPoint x="99" y="311" as="targetPoint" />
            <mxPoint x="248.5" y="222" as="sourcePoint" />
            <Array as="points" />
          </mxGeometry>
        </mxCell>
        <mxCell id="NGvsOuR53g8j-f88PqMH-13" value="&lt;font style=&quot;font-size: 12px;&quot;&gt;Data Sepatu&lt;/font&gt;" style="rounded=1;whiteSpace=wrap;html=1;arcSize=40;fontColor=#000000;fillColor=#ffffc0;strokeColor=#ff0000;" vertex="1" parent="NGvsOuR53g8j-f88PqMH-6">
          <mxGeometry x="37.5" y="160" width="125" height="30" as="geometry" />
        </mxCell>
        <mxCell id="NGvsOuR53g8j-f88PqMH-14" value="" style="edgeStyle=orthogonalEdgeStyle;html=1;verticalAlign=bottom;endArrow=open;endSize=8;strokeColor=#000000;rounded=0;exitX=0.5;exitY=0;exitDx=0;exitDy=0;entryX=0.5;entryY=1;entryDx=0;entryDy=0;" edge="1" parent="NGvsOuR53g8j-f88PqMH-6" source="NGvsOuR53g8j-f88PqMH-13" target="NGvsOuR53g8j-f88PqMH-9">
          <mxGeometry relative="1" as="geometry">
            <mxPoint x="140" y="140" as="targetPoint" />
            <mxPoint x="-90" y="213" as="sourcePoint" />
            <Array as="points">
              <mxPoint x="100" y="140" />
              <mxPoint x="100" y="140" />
            </Array>
          </mxGeometry>
        </mxCell>
      </root>
    </mxGraphModel>
  </diagram>
</mxfile>
